<?xml version="1.0" encoding="UTF-8" standalone="no" ?>
<!DOCTYPE svg PUBLIC "-//W3C//DTD SVG 1.1//EN" "http://www.w3.org/Graphics/SVG/1.1/DTD/svg11.dtd">
<svg xmlns="http://www.w3.org/2000/svg" xmlns:xlink="http://www.w3.org/1999/xlink" version="1.1" width="302.362204728" height="226.771653546" viewBox="0 0 733 549.75" xml:space="preserve">
<desc>Created with Fabric.js 3.2.0</desc>
<defs>
</defs>
<g transform="matrix(0.4 0 0 0.45 366.5 279.53)"  >
<g style=""   >
</g>
</g>
<g transform="matrix(0.59 0 0 0.59 366.476015625 302.9695)" style=""  >
		<text xml:space="preserve" font-family="Hammersmith One" font-size="20" font-style="normal" font-weight="normal" style="stroke: none; stroke-width: 1; stroke-dasharray: none; stroke-linecap: butt; stroke-dashoffset: 0; stroke-linejoin: miter; stroke-miterlimit: 10; fill: rgb(64,71,98); fill-rule: nonzero; opacity: 1; white-space: pre;" ><tspan x="-46.6796875" y="6.2828" >SINCE 1611</tspan></text>
</g>
<g transform="matrix(2.59 0 0 2.59 367.1550097656 265.9295)" style=""  >
		<text xml:space="preserve" font-family="UnifrakturMaguntia" font-size="20" font-style="normal" font-weight="normal" style="stroke: none; stroke-width: 1; stroke-dasharray: none; stroke-linecap: butt; stroke-dashoffset: 0; stroke-linejoin: miter; stroke-miterlimit: 10; fill: rgb(64,71,98); fill-rule: nonzero; opacity: 1; white-space: pre;" ><tspan x="-37.4169921875" y="6.2828" >Medieval</tspan></text>
</g>
<g transform="matrix(0.36 0 0 0.3 357.5 360.7854024557)"  >
<g style=""   >
		<g transform="matrix(1 0 0 1 -196.8241663824 69.2)"  >
<path style="stroke: none; stroke-width: 1; stroke-dasharray: none; stroke-linecap: butt; stroke-dashoffset: 0; stroke-linejoin: miter; stroke-miterlimit: 10; fill: rgb(64,71,98); fill-rule: nonzero; opacity: 1;"  transform=" translate(-78.1758336176, -167.6)" d="M 77.7 167.4 c 0.3 0.1 0.6 0.3 0.6 0.4 C 78.8 167.5 78.9 167.4 77.7 167.4 z" stroke-linecap="round" />
</g>
		<g transform="matrix(1 0 0 1 -196.75 69.35)"  >
<path style="stroke: none; stroke-width: 1; stroke-dasharray: none; stroke-linecap: butt; stroke-dashoffset: 0; stroke-linejoin: miter; stroke-miterlimit: 10; fill: rgb(64,71,98); fill-rule: nonzero; opacity: 1;"  transform=" translate(-78.25, -167.75)" d="M 78.4 167.7 c -0.1 0 -0.1 0 -0.3 0.1 C 78.3 167.8 78.3 167.8 78.4 167.7 C 78.4 167.8 78.4 167.8 78.4 167.7 z" stroke-linecap="round" />
</g>
		<g transform="matrix(1 0 0 1 -191 71.8)"  >
<path style="stroke: none; stroke-width: 1; stroke-dasharray: none; stroke-linecap: butt; stroke-dashoffset: 0; stroke-linejoin: miter; stroke-miterlimit: 10; fill: rgb(64,71,98); fill-rule: nonzero; opacity: 1;"  transform=" translate(-84, -170.2)" d="M 101.4 174.3 c 1.3 -0.4 2.1 -0.1 3.2 -0.4 l 0.6 0.6 c 1.3 -0.3 0.6 -0.5 1.5 -0.9 c 1.2 0.4 3.7 0 4.2 0 c 0.4 0.3 -0.5 0.4 -0.6 0.6 c 1.5 -0.3 1.4 -0.9 3.3 -0.9 v 0.1 c 4.6 -0.9 10.4 -0.8 15.4 -1.3 c -0.4 0 -0.3 -0.1 -0.4 -0.3 c 5.4 -0.3 11.6 -0.3 15.8 -1.9 c -3 0.1 -7.8 -0.9 -10.8 0.3 c -1 -0.5 -2.8 0.3 -3.2 -0.5 c -4.2 -0.3 -5.9 0.9 -10 0.9 c -0.6 -0.1 -0.3 -0.5 -0.5 -0.8 l 3.2 -0.4 l -1.8 0.1 c 0.9 -0.3 3 -0.1 3.1 -0.6 c -2.8 0.8 -7.3 0.1 -9.8 1 c 1.2 0.1 2.6 0 4 0 c 0.6 0.3 1.5 0.4 1.4 0.6 c -3.9 0.9 -7.1 0.5 -11.2 0.8 c -1 0.1 -2.3 0 -2.6 -0.3 c 0.6 -0.1 0.1 -0.4 0.6 -0.5 c -1.4 0.3 -0.1 1.2 -2.2 1 l 0.3 -1.2 c -0.8 1.2 -2.6 -0.3 -4 0.5 c -0.5 -0.4 0.4 -0.8 1.5 -0.8 c -1.3 -0.3 -1.4 0.5 -2.4 0.4 l 1 -0.9 c -1 0.9 -1.9 -0.1 -2.6 -0.5 c -0.1 0.3 0.5 0.9 -0.9 0.9 c -0.6 -0.1 -0.3 -0.4 -0.4 -0.5 c -0.1 0.3 -0.5 0.6 -1.4 0.6 c -0.1 -0.3 0.6 -0.5 0.6 -0.8 c -0.6 0 -1.3 0.1 -1.7 -0.1 c -1.2 0.3 0.1 0.5 -0.6 0.8 c -1.8 -0.3 -0.1 -1.2 -0.9 -1.8 c 1.4 -0.5 3.2 -0.6 3.9 -0.9 l -2.7 0.3 c 0.1 -0.4 -1.8 -0.6 -0.4 -1 c -2.7 -0.4 -5.8 0.1 -8.4 0.4 c 0.4 0.1 0.8 0.3 0.8 0.4 c -1.3 0.3 -1.2 -0.3 -1.4 -0.5 c -1 0.3 -0.9 0.9 -1.4 1.4 c -2.1 -0.5 -2.3 -0.3 -4 -1 l 0.1 0.6 c -1.2 -0.5 -1.4 0.5 -2.7 0.1 c -0.1 -0.1 0.4 -0.3 0.8 -0.5 c -1.2 0.3 -1 -0.5 -2.2 -0.3 l 0.9 -0.8 c -0.9 0 -2.2 0.3 -1.8 -0.4 c -1.5 0.8 -4.4 0.4 -6.3 0.9 l 0.1 -0.5 c -1 0.6 -3.7 0 -4.6 0.8 l -0.1 -0.3 l -2.1 0.8 c -0.9 -0.1 -0.6 -0.9 -0.6 -0.6 c -2.1 0.1 -3.6 0.3 -4.9 -0.1 c -0.4 0.8 -2.4 0.9 -4.1 1 c -8.1 -0.5 -16.7 0.3 -24.3 1.2 c -1.2 0 -2.7 0.9 -4.1 1.3 c 1.7 0.1 1.9 -0.1 3.6 -0.3 c 1.3 0.3 1.8 1 2.8 1.4 l -0.5 -0.6 c 1.7 -0.5 1.2 0.4 2.6 -0.3 v 1 c 0.5 -0.5 1.7 -0.1 2.2 0.1 l 0.4 -0.6 c 1 0.4 1.8 0.5 2.1 1.2 l -0.1 -0.6 c 0.4 0.4 4.1 -0.1 2.8 1 c 0.3 -0.1 0.6 -0.5 1.3 -0.4 l 0.1 0.6 c 1 -0.1 2.1 -0.3 2.4 0.1 c -0.5 0.1 -0.8 0.4 -0.9 0.8 c 4.2 0.1 0.9 -2.1 4.6 -2.2 v 0.4 l 0.9 -0.4 l 1 0.5 c 1.3 -1.4 5.1 0.1 7.5 -0.6 c 0.9 -0.1 2.1 0.8 3.7 0.6 l -0.1 -0.6 c 1.3 0.6 6.4 1 7.6 2.6 c 1.3 -0.5 -0.1 -0.1 -0.1 -0.6 c 2.4 -0.6 2.7 0.4 4 0.8 c 1.5 -0.4 -1.2 -0.3 -0.4 -0.8 c 2.3 0.5 1.9 -0.8 4.8 -0.4 c 0.3 0.4 -0.8 0.3 -1 0.5 c 2.1 -0.6 5.8 -0.3 8.9 -0.4 c 3.5 0.5 8.6 0.6 12.6 1.2 l 0.1 -0.3 c 1.7 0.6 3.5 0 5.4 0.3 L 101.4 174.3 z" stroke-linecap="round" />
</g>
		<g transform="matrix(1 0 0 1 -150.55 69.6908693606)"  >
<path style="stroke: none; stroke-width: 1; stroke-dasharray: none; stroke-linecap: butt; stroke-dashoffset: 0; stroke-linejoin: miter; stroke-miterlimit: 10; fill: rgb(64,71,98); fill-rule: nonzero; opacity: 1;"  transform=" translate(-124.45, -168.0908693606)" d="M 125.5 168.3 l -0.3 -0.5 l -1.8 0.4 C 124.1 168.6 124.4 168.2 125.5 168.3 z" stroke-linecap="round" />
</g>
		<g transform="matrix(1 0 0 1 -149.8 71.45)"  >
<polygon style="stroke: none; stroke-width: 1; stroke-dasharray: none; stroke-linecap: butt; stroke-dashoffset: 0; stroke-linejoin: miter; stroke-miterlimit: 10; fill: rgb(64,71,98); fill-rule: nonzero; opacity: 1;"  points="-0.1,0.15 0.8,-0.15 -0.8,-0.15 " />
</g>
		<g transform="matrix(1 0 0 1 -171.55 70.55)"  >
<polygon style="stroke: none; stroke-width: 1; stroke-dasharray: none; stroke-linecap: butt; stroke-dashoffset: 0; stroke-linejoin: miter; stroke-miterlimit: 10; fill: rgb(64,71,98); fill-rule: nonzero; opacity: 1;"  points="-1.95,0.15 -1.65,0.25 1.95,-0.25 " />
</g>
		<g transform="matrix(1 0 0 1 -196.55 68.2)"  >
<path style="stroke: none; stroke-width: 1; stroke-dasharray: none; stroke-linecap: butt; stroke-dashoffset: 0; stroke-linejoin: miter; stroke-miterlimit: 10; fill: rgb(64,71,98); fill-rule: nonzero; opacity: 1;"  transform=" translate(-78.45, -166.6)" d="M 77.9 166.8 c 0.4 -0.3 1 -0.1 1.4 -0.4 l -1.7 0.3 L 77.9 166.8 z" stroke-linecap="round" />
</g>
		<g transform="matrix(1 0 0 1 -213.3065799904 66.65)"  >
<path style="stroke: none; stroke-width: 1; stroke-dasharray: none; stroke-linecap: butt; stroke-dashoffset: 0; stroke-linejoin: miter; stroke-miterlimit: 10; fill: rgb(64,71,98); fill-rule: nonzero; opacity: 1;"  transform=" translate(-61.6934200096, -165.05)" d="M 62.1 164.6 c -0.6 1 -1.3 0 -0.4 0.9 C 62.6 165.3 61.7 165 62.1 164.6 z" stroke-linecap="round" />
</g>
		<g transform="matrix(1 0 0 1 -216.1 67.3820079054)"  >
<path style="stroke: none; stroke-width: 1; stroke-dasharray: none; stroke-linecap: butt; stroke-dashoffset: 0; stroke-linejoin: miter; stroke-miterlimit: 10; fill: rgb(64,71,98); fill-rule: nonzero; opacity: 1;"  transform=" translate(-58.9, -165.7820079054)" d="M 58.3 166 c 0.5 0 0.9 -0.1 1.2 -0.3 C 58.7 165.3 58.7 165.9 58.3 166 z" stroke-linecap="round" />
</g>
		<g transform="matrix(1 0 0 1 189.6967892651 73.3)"  >
<path style="stroke: none; stroke-width: 1; stroke-dasharray: none; stroke-linecap: butt; stroke-dashoffset: 0; stroke-linejoin: miter; stroke-miterlimit: 10; fill: rgb(64,71,98); fill-rule: nonzero; opacity: 1;"  transform=" translate(-464.6967892651, -171.7)" d="M 465.1 171.9 c -0.3 -0.1 -0.6 -0.3 -0.6 -0.4 C 464.2 171.8 464.1 171.9 465.1 171.9 z" stroke-linecap="round" />
</g>
		<g transform="matrix(1 0 0 1 189.65 73.05)"  >
<path style="stroke: none; stroke-width: 1; stroke-dasharray: none; stroke-linecap: butt; stroke-dashoffset: 0; stroke-linejoin: miter; stroke-miterlimit: 10; fill: rgb(64,71,98); fill-rule: nonzero; opacity: 1;"  transform=" translate(-464.65, -171.45)" d="M 464.5 171.5 c 0.1 0 0.1 0 0.3 -0.1 C 464.7 171.5 464.6 171.5 464.5 171.5 z" stroke-linecap="round" />
</g>
		<g transform="matrix(1 0 0 1 184.05 70.9)"  >
<path style="stroke: none; stroke-width: 1; stroke-dasharray: none; stroke-linecap: butt; stroke-dashoffset: 0; stroke-linejoin: miter; stroke-miterlimit: 10; fill: rgb(64,71,98); fill-rule: nonzero; opacity: 1;"  transform=" translate(-459.05, -169.3)" d="M 441.6 165 c -1.3 0.4 -2.1 0.1 -3.2 0.4 l -0.6 -0.6 c -1.3 0.3 -0.6 0.5 -1.5 0.9 c -1.2 -0.4 -3.7 0 -4.2 0 c -0.4 -0.3 0.5 -0.4 0.6 -0.6 c -1.5 0.3 -1.4 0.9 -3.3 0.9 v -0.1 c -4.6 0.9 -10.4 0.8 -15.4 1.3 c 0.4 0 0.3 0.1 0.4 0.3 c -5.4 0.3 -11.6 0.3 -15.8 1.9 c 3 -0.1 7.8 0.9 10.8 -0.3 c 1 0.5 2.8 -0.3 3.2 0.5 c 4.2 0.3 5.9 -0.9 10 -0.9 c 0.6 0.1 0.3 0.5 0.5 0.8 l -3.2 0.4 l 1.9 0.3 c -0.9 0.3 -3 0.1 -3.1 0.6 c 2.8 -0.8 7.3 -0.1 9.8 -1 c -1.2 -0.1 -2.6 0 -4 0 c -0.6 -0.3 -1.5 -0.4 -1.4 -0.6 c 3.9 -0.9 7.1 -0.5 11.2 -0.8 c 1 -0.1 2.3 0 2.6 0.3 c -0.6 0.1 -0.1 0.4 -0.6 0.5 c 1.4 -0.3 0.1 -1.2 2.2 -1 l -0.3 1.2 c 0.8 -1.2 2.6 0.3 4 -0.5 c 0.5 0.4 -0.4 0.8 -1.5 0.8 c 1.3 0.3 1.4 -0.5 2.4 -0.4 l -1 0.9 c 1 -0.9 1.9 0.1 2.6 0.5 c 0.1 -0.3 -0.5 -0.9 0.9 -0.9 c 0.6 0.1 0.3 0.4 0.4 0.5 c 0.1 -0.3 0.5 -0.6 1.4 -0.6 c 0.1 0.3 -0.6 0.5 -0.6 0.8 c 0.6 0 1.3 -0.1 1.7 0.1 c 1.2 -0.3 -0.1 -0.5 0.6 -0.8 c 1.8 0.3 0.1 1.2 0.9 1.8 c -1.4 0.5 -3.2 0.6 -3.9 0.9 l 2.7 -0.3 c -0.1 0.4 1.8 0.6 0.4 1 c 2.7 0.4 5.8 -0.1 8.4 -0.4 c -0.4 -0.1 -0.8 -0.3 -0.8 -0.4 c 1.3 -0.3 1.2 0.3 1.4 0.5 c 1 -0.3 0.9 -0.9 1.4 -1.4 c 2.1 0.5 2.3 0.3 4 1 l -0.1 -0.6 c 1.2 0.5 1.4 -0.5 2.7 -0.1 c 0.1 0.1 -0.4 0.3 -0.8 0.5 c 1.2 -0.3 1 0.5 2.2 0.3 l -0.9 0.8 c 0.9 0 2.2 -0.3 1.8 0.4 c 1.5 -0.8 4.4 -0.4 6.3 -0.9 l -0.1 0.5 c 1 -0.6 3.7 0 4.6 -0.8 l 0.1 0.3 l 2.1 -0.8 c 0.9 0.1 0.6 0.9 0.6 0.6 c 2.1 -0.1 3.6 -0.3 4.9 0.1 c 0.4 -0.8 2.4 -0.9 4.1 -1 c 8.1 0.5 16.7 -0.3 24.3 -1.2 c 1.2 0 2.7 -0.9 4.1 -1.3 c -1.7 -0.1 -1.9 0.1 -3.6 0.3 c -1.3 -0.3 -1.8 -1 -2.8 -1.4 l 0.5 0.6 c -1.7 0.5 -1.2 -0.4 -2.6 0.3 v -1 c -0.5 0.5 -1.7 0.1 -2.2 -0.1 l -0.4 0.6 c -1 -0.4 -1.8 -0.5 -2.1 -1.2 l 0.1 0.6 c -0.4 -0.4 -4.1 0.1 -2.8 -1 c -0.3 0.1 -0.6 0.5 -1.3 0.4 l -0.1 -0.6 c -1 0.1 -2.1 0.3 -2.4 -0.1 c 0.5 -0.1 0.8 -0.4 0.9 -0.8 c -4.2 -0.1 -0.9 2.1 -4.6 2.2 v -0.4 l -0.9 0.4 l -1 -0.5 c -1.3 1.4 -5.1 -0.1 -7.5 0.6 c -0.9 0.1 -2.1 -0.8 -3.7 -0.6 l 0.1 0.6 c -1.3 -0.6 -6.4 -1 -7.6 -2.6 c -1.3 0.5 0.1 0.1 0.1 0.6 c -2.4 0.6 -2.7 -0.4 -4 -0.8 c -1.5 0.4 1.2 0.3 0.4 0.8 c -2.3 -0.5 -1.9 0.8 -4.8 0.4 c -0.3 -0.4 0.8 -0.3 1 -0.5 c -2.1 0.6 -5.8 0.3 -8.9 0.4 c -3.5 -0.5 -8.6 -0.6 -12.6 -1.2 l -0.1 0.3 c -1.7 -0.6 -3.5 0 -5.4 -0.3 L 441.6 165 z" stroke-linecap="round" />
</g>
		<g transform="matrix(1 0 0 1 143.55 72.8091306394)"  >
<path style="stroke: none; stroke-width: 1; stroke-dasharray: none; stroke-linecap: butt; stroke-dashoffset: 0; stroke-linejoin: miter; stroke-miterlimit: 10; fill: rgb(64,71,98); fill-rule: nonzero; opacity: 1;"  transform=" translate(-418.55, -171.2091306394)" d="M 417.5 171 l 0.3 0.5 l 1.8 -0.4 C 418.9 170.7 418.5 171.1 417.5 171 z" stroke-linecap="round" />
</g>
		<g transform="matrix(1 0 0 1 142.65 71.05)"  >
<polygon style="stroke: none; stroke-width: 1; stroke-dasharray: none; stroke-linecap: butt; stroke-dashoffset: 0; stroke-linejoin: miter; stroke-miterlimit: 10; fill: rgb(64,71,98); fill-rule: nonzero; opacity: 1;"  points="0.25,-0.15 -0.75,0.15 0.75,0.15 " />
</g>
		<g transform="matrix(1 0 0 1 164.45 71.95)"  >
<polygon style="stroke: none; stroke-width: 1; stroke-dasharray: none; stroke-linecap: butt; stroke-dashoffset: 0; stroke-linejoin: miter; stroke-miterlimit: 10; fill: rgb(64,71,98); fill-rule: nonzero; opacity: 1;"  points="1.85,-0.15 1.65,-0.25 -1.85,0.25 " />
</g>
		<g transform="matrix(1 0 0 1 189.45 74.2)"  >
<path style="stroke: none; stroke-width: 1; stroke-dasharray: none; stroke-linecap: butt; stroke-dashoffset: 0; stroke-linejoin: miter; stroke-miterlimit: 10; fill: rgb(64,71,98); fill-rule: nonzero; opacity: 1;"  transform=" translate(-464.45, -172.6)" d="M 465 172.4 c -0.4 0.3 -1 0.1 -1.4 0.4 l 1.7 -0.3 L 465 172.4 z" stroke-linecap="round" />
</g>
		<g transform="matrix(1 0 0 1 206.2933034884 75.85)"  >
<path style="stroke: none; stroke-width: 1; stroke-dasharray: none; stroke-linecap: butt; stroke-dashoffset: 0; stroke-linejoin: miter; stroke-miterlimit: 10; fill: rgb(64,71,98); fill-rule: nonzero; opacity: 1;"  transform=" translate(-481.2933034884, -174.25)" d="M 480.9 174.7 c 0.6 -1 1.3 0 0.4 -0.9 C 480.4 174 481.2 174.3 480.9 174.7 z" stroke-linecap="round" />
</g>
		<g transform="matrix(1 0 0 1 209.1 75.047105413)"  >
<path style="stroke: none; stroke-width: 1; stroke-dasharray: none; stroke-linecap: butt; stroke-dashoffset: 0; stroke-linejoin: miter; stroke-miterlimit: 10; fill: rgb(64,71,98); fill-rule: nonzero; opacity: 1;"  transform=" translate(-484.1, -173.447105413)" d="M 484.7 173.2 c -0.5 0 -0.9 0.1 -1.2 0.3 C 484.2 174 484.3 173.4 484.7 173.2 z" stroke-linecap="round" />
</g>
</g>
</g>
<g transform="matrix(2.33 0 0 2.33 356.9929991112 354.7094024557)" style=""  >
		<text xml:space="preserve" font-family="Fredoka One" font-size="20" font-style="normal" font-weight="normal" style="stroke: none; stroke-width: 1; stroke-dasharray: none; stroke-linecap: butt; stroke-dashoffset: 0; stroke-linejoin: miter; stroke-miterlimit: 10; fill: rgb(64,71,98); fill-rule: nonzero; opacity: 1; white-space: pre;" ><tspan x="-39.5999996185" y="6.2828" >MEXICO</tspan></text>
</g>
<g transform="matrix(0.43 0 0 0.43 357.4941699219 381.5194024557)" style=""  >
		<text xml:space="preserve" font-family="Special Elite" font-size="20" font-style="normal" font-weight="normal" style="stroke: none; stroke-width: 1; stroke-dasharray: none; stroke-linecap: butt; stroke-dashoffset: 0; stroke-linejoin: miter; stroke-miterlimit: 10; fill: rgb(64,71,98); fill-rule: nonzero; opacity: 1; white-space: pre;" ><tspan x="-71.6259765625" y="6.2828" >THE LOW-DOWN</tspan></text>
</g>
<g transform="matrix(0.63 0 0 0.65 397.5 103.1096521146)"  >
<g style=""   >
</g>
</g>
<g transform="matrix(1.58 0 0 1.58 330.3444022903 100.2761521146)" style=""  >
		<text xml:space="preserve" font-family="Raleway" font-size="20" font-style="normal" font-weight="bold" style="stroke: none; stroke-width: 1; stroke-dasharray: none; stroke-linecap: butt; stroke-dashoffset: 0; stroke-linejoin: miter; stroke-miterlimit: 10; fill: rgb(64,71,98); fill-rule: nonzero; opacity: 1; white-space: pre;" ><tspan x="-56.6800014496" y="6.2828" >EXHIBITION</tspan></text>
</g>
<g transform="matrix(1.58 0 0 1.58 309.1389963837 128.4261521146)" style=""  >
		<text xml:space="preserve" font-family="Raleway" font-size="20" font-style="normal" font-weight="bold" style="stroke: none; stroke-width: 1; stroke-dasharray: none; stroke-linecap: butt; stroke-dashoffset: 0; stroke-linejoin: miter; stroke-miterlimit: 10; fill: rgb(64,71,98); fill-rule: nonzero; opacity: 1; white-space: pre;" ><tspan x="-43.0499977112" y="6.2828" >ON NOW</tspan></text>
</g>
<g transform="matrix(0.39 0 0 0.39 271.4475 81.5341521146)" style=""  >
		<text xml:space="preserve" font-family="Roboto Condensed" font-size="20" font-style="normal" font-weight="normal" style="stroke: none; stroke-width: 1; stroke-dasharray: none; stroke-linecap: butt; stroke-dashoffset: 0; stroke-linejoin: miter; stroke-miterlimit: 10; fill: rgb(64,71,98); fill-rule: nonzero; opacity: 1; white-space: pre;" ><tspan x="-73.75" y="6.2828" >SCULPTURE &amp; ART</tspan></text>
</g>
<g transform="matrix(1 0 0 1 509.3604411469 84.006271506)"  >
<path style="stroke: none; stroke-width: 1; stroke-dasharray: none; stroke-linecap: butt; stroke-dashoffset: 0; stroke-linejoin: miter; stroke-miterlimit: 4; fill: rgb(204,50,75); fill-rule: nonzero; opacity: 1;"  transform=" translate(-66, -66)" d="M 0 0 l 4 0 l 0 4 l -4 0 l 0 -4 z M 4 0 l 4 0 l 0 4 l -4 0 l 0 -4 z M 8 0 l 4 0 l 0 4 l -4 0 l 0 -4 z M 12 0 l 4 0 l 0 4 l -4 0 l 0 -4 z M 16 0 l 4 0 l 0 4 l -4 0 l 0 -4 z M 20 0 l 4 0 l 0 4 l -4 0 l 0 -4 z M 24 0 l 4 0 l 0 4 l -4 0 l 0 -4 z M 32 0 l 4 0 l 0 4 l -4 0 l 0 -4 z M 36 0 l 4 0 l 0 4 l -4 0 l 0 -4 z M 40 0 l 4 0 l 0 4 l -4 0 l 0 -4 z M 48 0 l 4 0 l 0 4 l -4 0 l 0 -4 z M 68 0 l 4 0 l 0 4 l -4 0 l 0 -4 z M 76 0 l 4 0 l 0 4 l -4 0 l 0 -4 z M 80 0 l 4 0 l 0 4 l -4 0 l 0 -4 z M 84 0 l 4 0 l 0 4 l -4 0 l 0 -4 z M 88 0 l 4 0 l 0 4 l -4 0 l 0 -4 z M 96 0 l 4 0 l 0 4 l -4 0 l 0 -4 z M 104 0 l 4 0 l 0 4 l -4 0 l 0 -4 z M 108 0 l 4 0 l 0 4 l -4 0 l 0 -4 z M 112 0 l 4 0 l 0 4 l -4 0 l 0 -4 z M 116 0 l 4 0 l 0 4 l -4 0 l 0 -4 z M 120 0 l 4 0 l 0 4 l -4 0 l 0 -4 z M 124 0 l 4 0 l 0 4 l -4 0 l 0 -4 z M 128 0 l 4 0 l 0 4 l -4 0 l 0 -4 z M 0 4 l 4 0 l 0 4 l -4 0 l 0 -4 z M 24 4 l 4 0 l 0 4 l -4 0 l 0 -4 z M 32 4 l 4 0 l 0 4 l -4 0 l 0 -4 z M 36 4 l 4 0 l 0 4 l -4 0 l 0 -4 z M 40 4 l 4 0 l 0 4 l -4 0 l 0 -4 z M 64 4 l 4 0 l 0 4 l -4 0 l 0 -4 z M 68 4 l 4 0 l 0 4 l -4 0 l 0 -4 z M 76 4 l 4 0 l 0 4 l -4 0 l 0 -4 z M 84 4 l 4 0 l 0 4 l -4 0 l 0 -4 z M 88 4 l 4 0 l 0 4 l -4 0 l 0 -4 z M 104 4 l 4 0 l 0 4 l -4 0 l 0 -4 z M 128 4 l 4 0 l 0 4 l -4 0 l 0 -4 z M 0 8 l 4 0 l 0 4 l -4 0 l 0 -4 z M 8 8 l 4 0 l 0 4 l -4 0 l 0 -4 z M 12 8 l 4 0 l 0 4 l -4 0 l 0 -4 z M 16 8 l 4 0 l 0 4 l -4 0 l 0 -4 z M 24 8 l 4 0 l 0 4 l -4 0 l 0 -4 z M 32 8 l 4 0 l 0 4 l -4 0 l 0 -4 z M 40 8 l 4 0 l 0 4 l -4 0 l 0 -4 z M 44 8 l 4 0 l 0 4 l -4 0 l 0 -4 z M 52 8 l 4 0 l 0 4 l -4 0 l 0 -4 z M 60 8 l 4 0 l 0 4 l -4 0 l 0 -4 z M 64 8 l 4 0 l 0 4 l -4 0 l 0 -4 z M 88 8 l 4 0 l 0 4 l -4 0 l 0 -4 z M 92 8 l 4 0 l 0 4 l -4 0 l 0 -4 z M 104 8 l 4 0 l 0 4 l -4 0 l 0 -4 z M 112 8 l 4 0 l 0 4 l -4 0 l 0 -4 z M 116 8 l 4 0 l 0 4 l -4 0 l 0 -4 z M 120 8 l 4 0 l 0 4 l -4 0 l 0 -4 z M 128 8 l 4 0 l 0 4 l -4 0 l 0 -4 z M 0 12 l 4 0 l 0 4 l -4 0 l 0 -4 z M 8 12 l 4 0 l 0 4 l -4 0 l 0 -4 z M 12 12 l 4 0 l 0 4 l -4 0 l 0 -4 z M 16 12 l 4 0 l 0 4 l -4 0 l 0 -4 z M 24 12 l 4 0 l 0 4 l -4 0 l 0 -4 z M 32 12 l 4 0 l 0 4 l -4 0 l 0 -4 z M 36 12 l 4 0 l 0 4 l -4 0 l 0 -4 z M 44 12 l 4 0 l 0 4 l -4 0 l 0 -4 z M 56 12 l 4 0 l 0 4 l -4 0 l 0 -4 z M 60 12 l 4 0 l 0 4 l -4 0 l 0 -4 z M 64 12 l 4 0 l 0 4 l -4 0 l 0 -4 z M 68 12 l 4 0 l 0 4 l -4 0 l 0 -4 z M 72 12 l 4 0 l 0 4 l -4 0 l 0 -4 z M 84 12 l 4 0 l 0 4 l -4 0 l 0 -4 z M 92 12 l 4 0 l 0 4 l -4 0 l 0 -4 z M 104 12 l 4 0 l 0 4 l -4 0 l 0 -4 z M 112 12 l 4 0 l 0 4 l -4 0 l 0 -4 z M 116 12 l 4 0 l 0 4 l -4 0 l 0 -4 z M 120 12 l 4 0 l 0 4 l -4 0 l 0 -4 z M 128 12 l 4 0 l 0 4 l -4 0 l 0 -4 z M 0 16 l 4 0 l 0 4 l -4 0 l 0 -4 z M 8 16 l 4 0 l 0 4 l -4 0 l 0 -4 z M 12 16 l 4 0 l 0 4 l -4 0 l 0 -4 z M 16 16 l 4 0 l 0 4 l -4 0 l 0 -4 z M 24 16 l 4 0 l 0 4 l -4 0 l 0 -4 z M 52 16 l 4 0 l 0 4 l -4 0 l 0 -4 z M 56 16 l 4 0 l 0 4 l -4 0 l 0 -4 z M 64 16 l 4 0 l 0 4 l -4 0 l 0 -4 z M 72 16 l 4 0 l 0 4 l -4 0 l 0 -4 z M 76 16 l 4 0 l 0 4 l -4 0 l 0 -4 z M 104 16 l 4 0 l 0 4 l -4 0 l 0 -4 z M 112 16 l 4 0 l 0 4 l -4 0 l 0 -4 z M 116 16 l 4 0 l 0 4 l -4 0 l 0 -4 z M 120 16 l 4 0 l 0 4 l -4 0 l 0 -4 z M 128 16 l 4 0 l 0 4 l -4 0 l 0 -4 z M 0 20 l 4 0 l 0 4 l -4 0 l 0 -4 z M 24 20 l 4 0 l 0 4 l -4 0 l 0 -4 z M 32 20 l 4 0 l 0 4 l -4 0 l 0 -4 z M 44 20 l 4 0 l 0 4 l -4 0 l 0 -4 z M 48 20 l 4 0 l 0 4 l -4 0 l 0 -4 z M 52 20 l 4 0 l 0 4 l -4 0 l 0 -4 z M 56 20 l 4 0 l 0 4 l -4 0 l 0 -4 z M 60 20 l 4 0 l 0 4 l -4 0 l 0 -4 z M 72 20 l 4 0 l 0 4 l -4 0 l 0 -4 z M 80 20 l 4 0 l 0 4 l -4 0 l 0 -4 z M 92 20 l 4 0 l 0 4 l -4 0 l 0 -4 z M 96 20 l 4 0 l 0 4 l -4 0 l 0 -4 z M 104 20 l 4 0 l 0 4 l -4 0 l 0 -4 z M 128 20 l 4 0 l 0 4 l -4 0 l 0 -4 z M 0 24 l 4 0 l 0 4 l -4 0 l 0 -4 z M 4 24 l 4 0 l 0 4 l -4 0 l 0 -4 z M 8 24 l 4 0 l 0 4 l -4 0 l 0 -4 z M 12 24 l 4 0 l 0 4 l -4 0 l 0 -4 z M 16 24 l 4 0 l 0 4 l -4 0 l 0 -4 z M 20 24 l 4 0 l 0 4 l -4 0 l 0 -4 z M 24 24 l 4 0 l 0 4 l -4 0 l 0 -4 z M 32 24 l 4 0 l 0 4 l -4 0 l 0 -4 z M 40 24 l 4 0 l 0 4 l -4 0 l 0 -4 z M 48 24 l 4 0 l 0 4 l -4 0 l 0 -4 z M 56 24 l 4 0 l 0 4 l -4 0 l 0 -4 z M 64 24 l 4 0 l 0 4 l -4 0 l 0 -4 z M 72 24 l 4 0 l 0 4 l -4 0 l 0 -4 z M 80 24 l 4 0 l 0 4 l -4 0 l 0 -4 z M 88 24 l 4 0 l 0 4 l -4 0 l 0 -4 z M 96 24 l 4 0 l 0 4 l -4 0 l 0 -4 z M 104 24 l 4 0 l 0 4 l -4 0 l 0 -4 z M 108 24 l 4 0 l 0 4 l -4 0 l 0 -4 z M 112 24 l 4 0 l 0 4 l -4 0 l 0 -4 z M 116 24 l 4 0 l 0 4 l -4 0 l 0 -4 z M 120 24 l 4 0 l 0 4 l -4 0 l 0 -4 z M 124 24 l 4 0 l 0 4 l -4 0 l 0 -4 z M 128 24 l 4 0 l 0 4 l -4 0 l 0 -4 z M 36 28 l 4 0 l 0 4 l -4 0 l 0 -4 z M 48 28 l 4 0 l 0 4 l -4 0 l 0 -4 z M 56 28 l 4 0 l 0 4 l -4 0 l 0 -4 z M 68 28 l 4 0 l 0 4 l -4 0 l 0 -4 z M 72 28 l 4 0 l 0 4 l -4 0 l 0 -4 z M 76 28 l 4 0 l 0 4 l -4 0 l 0 -4 z M 80 28 l 4 0 l 0 4 l -4 0 l 0 -4 z M 84 28 l 4 0 l 0 4 l -4 0 l 0 -4 z M 96 28 l 4 0 l 0 4 l -4 0 l 0 -4 z M 0 32 l 4 0 l 0 4 l -4 0 l 0 -4 z M 4 32 l 4 0 l 0 4 l -4 0 l 0 -4 z M 16 32 l 4 0 l 0 4 l -4 0 l 0 -4 z M 20 32 l 4 0 l 0 4 l -4 0 l 0 -4 z M 24 32 l 4 0 l 0 4 l -4 0 l 0 -4 z M 44 32 l 4 0 l 0 4 l -4 0 l 0 -4 z M 52 32 l 4 0 l 0 4 l -4 0 l 0 -4 z M 56 32 l 4 0 l 0 4 l -4 0 l 0 -4 z M 60 32 l 4 0 l 0 4 l -4 0 l 0 -4 z M 64 32 l 4 0 l 0 4 l -4 0 l 0 -4 z M 72 32 l 4 0 l 0 4 l -4 0 l 0 -4 z M 92 32 l 4 0 l 0 4 l -4 0 l 0 -4 z M 108 32 l 4 0 l 0 4 l -4 0 l 0 -4 z M 116 32 l 4 0 l 0 4 l -4 0 l 0 -4 z M 120 32 l 4 0 l 0 4 l -4 0 l 0 -4 z M 124 32 l 4 0 l 0 4 l -4 0 l 0 -4 z M 128 32 l 4 0 l 0 4 l -4 0 l 0 -4 z M 0 36 l 4 0 l 0 4 l -4 0 l 0 -4 z M 12 36 l 4 0 l 0 4 l -4 0 l 0 -4 z M 36 36 l 4 0 l 0 4 l -4 0 l 0 -4 z M 40 36 l 4 0 l 0 4 l -4 0 l 0 -4 z M 48 36 l 4 0 l 0 4 l -4 0 l 0 -4 z M 68 36 l 4 0 l 0 4 l -4 0 l 0 -4 z M 76 36 l 4 0 l 0 4 l -4 0 l 0 -4 z M 80 36 l 4 0 l 0 4 l -4 0 l 0 -4 z M 84 36 l 4 0 l 0 4 l -4 0 l 0 -4 z M 88 36 l 4 0 l 0 4 l -4 0 l 0 -4 z M 96 36 l 4 0 l 0 4 l -4 0 l 0 -4 z M 104 36 l 4 0 l 0 4 l -4 0 l 0 -4 z M 120 36 l 4 0 l 0 4 l -4 0 l 0 -4 z M 124 36 l 4 0 l 0 4 l -4 0 l 0 -4 z M 0 40 l 4 0 l 0 4 l -4 0 l 0 -4 z M 16 40 l 4 0 l 0 4 l -4 0 l 0 -4 z M 24 40 l 4 0 l 0 4 l -4 0 l 0 -4 z M 44 40 l 4 0 l 0 4 l -4 0 l 0 -4 z M 48 40 l 4 0 l 0 4 l -4 0 l 0 -4 z M 52 40 l 4 0 l 0 4 l -4 0 l 0 -4 z M 56 40 l 4 0 l 0 4 l -4 0 l 0 -4 z M 60 40 l 4 0 l 0 4 l -4 0 l 0 -4 z M 72 40 l 4 0 l 0 4 l -4 0 l 0 -4 z M 80 40 l 4 0 l 0 4 l -4 0 l 0 -4 z M 92 40 l 4 0 l 0 4 l -4 0 l 0 -4 z M 96 40 l 4 0 l 0 4 l -4 0 l 0 -4 z M 100 40 l 4 0 l 0 4 l -4 0 l 0 -4 z M 104 40 l 4 0 l 0 4 l -4 0 l 0 -4 z M 112 40 l 4 0 l 0 4 l -4 0 l 0 -4 z M 120 40 l 4 0 l 0 4 l -4 0 l 0 -4 z M 124 40 l 4 0 l 0 4 l -4 0 l 0 -4 z M 4 44 l 4 0 l 0 4 l -4 0 l 0 -4 z M 8 44 l 4 0 l 0 4 l -4 0 l 0 -4 z M 12 44 l 4 0 l 0 4 l -4 0 l 0 -4 z M 16 44 l 4 0 l 0 4 l -4 0 l 0 -4 z M 28 44 l 4 0 l 0 4 l -4 0 l 0 -4 z M 32 44 l 4 0 l 0 4 l -4 0 l 0 -4 z M 40 44 l 4 0 l 0 4 l -4 0 l 0 -4 z M 44 44 l 4 0 l 0 4 l -4 0 l 0 -4 z M 52 44 l 4 0 l 0 4 l -4 0 l 0 -4 z M 60 44 l 4 0 l 0 4 l -4 0 l 0 -4 z M 64 44 l 4 0 l 0 4 l -4 0 l 0 -4 z M 88 44 l 4 0 l 0 4 l -4 0 l 0 -4 z M 92 44 l 4 0 l 0 4 l -4 0 l 0 -4 z M 104 44 l 4 0 l 0 4 l -4 0 l 0 -4 z M 108 44 l 4 0 l 0 4 l -4 0 l 0 -4 z M 112 44 l 4 0 l 0 4 l -4 0 l 0 -4 z M 128 44 l 4 0 l 0 4 l -4 0 l 0 -4 z M 4 48 l 4 0 l 0 4 l -4 0 l 0 -4 z M 8 48 l 4 0 l 0 4 l -4 0 l 0 -4 z M 16 48 l 4 0 l 0 4 l -4 0 l 0 -4 z M 24 48 l 4 0 l 0 4 l -4 0 l 0 -4 z M 40 48 l 4 0 l 0 4 l -4 0 l 0 -4 z M 48 48 l 4 0 l 0 4 l -4 0 l 0 -4 z M 52 48 l 4 0 l 0 4 l -4 0 l 0 -4 z M 76 48 l 4 0 l 0 4 l -4 0 l 0 -4 z M 80 48 l 4 0 l 0 4 l -4 0 l 0 -4 z M 88 48 l 4 0 l 0 4 l -4 0 l 0 -4 z M 96 48 l 4 0 l 0 4 l -4 0 l 0 -4 z M 0 52 l 4 0 l 0 4 l -4 0 l 0 -4 z M 8 52 l 4 0 l 0 4 l -4 0 l 0 -4 z M 12 52 l 4 0 l 0 4 l -4 0 l 0 -4 z M 16 52 l 4 0 l 0 4 l -4 0 l 0 -4 z M 36 52 l 4 0 l 0 4 l -4 0 l 0 -4 z M 52 52 l 4 0 l 0 4 l -4 0 l 0 -4 z M 56 52 l 4 0 l 0 4 l -4 0 l 0 -4 z M 64 52 l 4 0 l 0 4 l -4 0 l 0 -4 z M 72 52 l 4 0 l 0 4 l -4 0 l 0 -4 z M 76 52 l 4 0 l 0 4 l -4 0 l 0 -4 z M 100 52 l 4 0 l 0 4 l -4 0 l 0 -4 z M 104 52 l 4 0 l 0 4 l -4 0 l 0 -4 z M 108 52 l 4 0 l 0 4 l -4 0 l 0 -4 z M 112 52 l 4 0 l 0 4 l -4 0 l 0 -4 z M 116 52 l 4 0 l 0 4 l -4 0 l 0 -4 z M 124 52 l 4 0 l 0 4 l -4 0 l 0 -4 z M 4 56 l 4 0 l 0 4 l -4 0 l 0 -4 z M 8 56 l 4 0 l 0 4 l -4 0 l 0 -4 z M 12 56 l 4 0 l 0 4 l -4 0 l 0 -4 z M 24 56 l 4 0 l 0 4 l -4 0 l 0 -4 z M 28 56 l 4 0 l 0 4 l -4 0 l 0 -4 z M 32 56 l 4 0 l 0 4 l -4 0 l 0 -4 z M 40 56 l 4 0 l 0 4 l -4 0 l 0 -4 z M 64 56 l 4 0 l 0 4 l -4 0 l 0 -4 z M 68 56 l 4 0 l 0 4 l -4 0 l 0 -4 z M 76 56 l 4 0 l 0 4 l -4 0 l 0 -4 z M 84 56 l 4 0 l 0 4 l -4 0 l 0 -4 z M 88 56 l 4 0 l 0 4 l -4 0 l 0 -4 z M 108 56 l 4 0 l 0 4 l -4 0 l 0 -4 z M 120 56 l 4 0 l 0 4 l -4 0 l 0 -4 z M 0 60 l 4 0 l 0 4 l -4 0 l 0 -4 z M 8 60 l 4 0 l 0 4 l -4 0 l 0 -4 z M 16 60 l 4 0 l 0 4 l -4 0 l 0 -4 z M 20 60 l 4 0 l 0 4 l -4 0 l 0 -4 z M 32 60 l 4 0 l 0 4 l -4 0 l 0 -4 z M 36 60 l 4 0 l 0 4 l -4 0 l 0 -4 z M 48 60 l 4 0 l 0 4 l -4 0 l 0 -4 z M 56 60 l 4 0 l 0 4 l -4 0 l 0 -4 z M 68 60 l 4 0 l 0 4 l -4 0 l 0 -4 z M 72 60 l 4 0 l 0 4 l -4 0 l 0 -4 z M 76 60 l 4 0 l 0 4 l -4 0 l 0 -4 z M 80 60 l 4 0 l 0 4 l -4 0 l 0 -4 z M 84 60 l 4 0 l 0 4 l -4 0 l 0 -4 z M 96 60 l 4 0 l 0 4 l -4 0 l 0 -4 z M 100 60 l 4 0 l 0 4 l -4 0 l 0 -4 z M 124 60 l 4 0 l 0 4 l -4 0 l 0 -4 z M 0 64 l 4 0 l 0 4 l -4 0 l 0 -4 z M 24 64 l 4 0 l 0 4 l -4 0 l 0 -4 z M 44 64 l 4 0 l 0 4 l -4 0 l 0 -4 z M 52 64 l 4 0 l 0 4 l -4 0 l 0 -4 z M 56 64 l 4 0 l 0 4 l -4 0 l 0 -4 z M 60 64 l 4 0 l 0 4 l -4 0 l 0 -4 z M 64 64 l 4 0 l 0 4 l -4 0 l 0 -4 z M 72 64 l 4 0 l 0 4 l -4 0 l 0 -4 z M 92 64 l 4 0 l 0 4 l -4 0 l 0 -4 z M 100 64 l 4 0 l 0 4 l -4 0 l 0 -4 z M 104 64 l 4 0 l 0 4 l -4 0 l 0 -4 z M 108 64 l 4 0 l 0 4 l -4 0 l 0 -4 z M 128 64 l 4 0 l 0 4 l -4 0 l 0 -4 z M 0 68 l 4 0 l 0 4 l -4 0 l 0 -4 z M 4 68 l 4 0 l 0 4 l -4 0 l 0 -4 z M 8 68 l 4 0 l 0 4 l -4 0 l 0 -4 z M 12 68 l 4 0 l 0 4 l -4 0 l 0 -4 z M 16 68 l 4 0 l 0 4 l -4 0 l 0 -4 z M 20 68 l 4 0 l 0 4 l -4 0 l 0 -4 z M 28 68 l 4 0 l 0 4 l -4 0 l 0 -4 z M 36 68 l 4 0 l 0 4 l -4 0 l 0 -4 z M 40 68 l 4 0 l 0 4 l -4 0 l 0 -4 z M 48 68 l 4 0 l 0 4 l -4 0 l 0 -4 z M 68 68 l 4 0 l 0 4 l -4 0 l 0 -4 z M 76 68 l 4 0 l 0 4 l -4 0 l 0 -4 z M 80 68 l 4 0 l 0 4 l -4 0 l 0 -4 z M 84 68 l 4 0 l 0 4 l -4 0 l 0 -4 z M 88 68 l 4 0 l 0 4 l -4 0 l 0 -4 z M 96 68 l 4 0 l 0 4 l -4 0 l 0 -4 z M 104 68 l 4 0 l 0 4 l -4 0 l 0 -4 z M 116 68 l 4 0 l 0 4 l -4 0 l 0 -4 z M 4 72 l 4 0 l 0 4 l -4 0 l 0 -4 z M 8 72 l 4 0 l 0 4 l -4 0 l 0 -4 z M 16 72 l 4 0 l 0 4 l -4 0 l 0 -4 z M 24 72 l 4 0 l 0 4 l -4 0 l 0 -4 z M 36 72 l 4 0 l 0 4 l -4 0 l 0 -4 z M 40 72 l 4 0 l 0 4 l -4 0 l 0 -4 z M 44 72 l 4 0 l 0 4 l -4 0 l 0 -4 z M 48 72 l 4 0 l 0 4 l -4 0 l 0 -4 z M 52 72 l 4 0 l 0 4 l -4 0 l 0 -4 z M 56 72 l 4 0 l 0 4 l -4 0 l 0 -4 z M 60 72 l 4 0 l 0 4 l -4 0 l 0 -4 z M 72 72 l 4 0 l 0 4 l -4 0 l 0 -4 z M 80 72 l 4 0 l 0 4 l -4 0 l 0 -4 z M 92 72 l 4 0 l 0 4 l -4 0 l 0 -4 z M 96 72 l 4 0 l 0 4 l -4 0 l 0 -4 z M 100 72 l 4 0 l 0 4 l -4 0 l 0 -4 z M 104 72 l 4 0 l 0 4 l -4 0 l 0 -4 z M 112 72 l 4 0 l 0 4 l -4 0 l 0 -4 z M 124 72 l 4 0 l 0 4 l -4 0 l 0 -4 z M 0 76 l 4 0 l 0 4 l -4 0 l 0 -4 z M 12 76 l 4 0 l 0 4 l -4 0 l 0 -4 z M 16 76 l 4 0 l 0 4 l -4 0 l 0 -4 z M 20 76 l 4 0 l 0 4 l -4 0 l 0 -4 z M 44 76 l 4 0 l 0 4 l -4 0 l 0 -4 z M 52 76 l 4 0 l 0 4 l -4 0 l 0 -4 z M 60 76 l 4 0 l 0 4 l -4 0 l 0 -4 z M 64 76 l 4 0 l 0 4 l -4 0 l 0 -4 z M 88 76 l 4 0 l 0 4 l -4 0 l 0 -4 z M 92 76 l 4 0 l 0 4 l -4 0 l 0 -4 z M 104 76 l 4 0 l 0 4 l -4 0 l 0 -4 z M 108 76 l 4 0 l 0 4 l -4 0 l 0 -4 z M 112 76 l 4 0 l 0 4 l -4 0 l 0 -4 z M 116 76 l 4 0 l 0 4 l -4 0 l 0 -4 z M 4 80 l 4 0 l 0 4 l -4 0 l 0 -4 z M 12 80 l 4 0 l 0 4 l -4 0 l 0 -4 z M 24 80 l 4 0 l 0 4 l -4 0 l 0 -4 z M 28 80 l 4 0 l 0 4 l -4 0 l 0 -4 z M 32 80 l 4 0 l 0 4 l -4 0 l 0 -4 z M 48 80 l 4 0 l 0 4 l -4 0 l 0 -4 z M 52 80 l 4 0 l 0 4 l -4 0 l 0 -4 z M 76 80 l 4 0 l 0 4 l -4 0 l 0 -4 z M 80 80 l 4 0 l 0 4 l -4 0 l 0 -4 z M 88 80 l 4 0 l 0 4 l -4 0 l 0 -4 z M 96 80 l 4 0 l 0 4 l -4 0 l 0 -4 z M 120 80 l 4 0 l 0 4 l -4 0 l 0 -4 z M 124 80 l 4 0 l 0 4 l -4 0 l 0 -4 z M 0 84 l 4 0 l 0 4 l -4 0 l 0 -4 z M 12 84 l 4 0 l 0 4 l -4 0 l 0 -4 z M 28 84 l 4 0 l 0 4 l -4 0 l 0 -4 z M 52 84 l 4 0 l 0 4 l -4 0 l 0 -4 z M 56 84 l 4 0 l 0 4 l -4 0 l 0 -4 z M 64 84 l 4 0 l 0 4 l -4 0 l 0 -4 z M 72 84 l 4 0 l 0 4 l -4 0 l 0 -4 z M 76 84 l 4 0 l 0 4 l -4 0 l 0 -4 z M 100 84 l 4 0 l 0 4 l -4 0 l 0 -4 z M 104 84 l 4 0 l 0 4 l -4 0 l 0 -4 z M 108 84 l 4 0 l 0 4 l -4 0 l 0 -4 z M 112 84 l 4 0 l 0 4 l -4 0 l 0 -4 z M 116 84 l 4 0 l 0 4 l -4 0 l 0 -4 z M 124 84 l 4 0 l 0 4 l -4 0 l 0 -4 z M 16 88 l 4 0 l 0 4 l -4 0 l 0 -4 z M 20 88 l 4 0 l 0 4 l -4 0 l 0 -4 z M 24 88 l 4 0 l 0 4 l -4 0 l 0 -4 z M 28 88 l 4 0 l 0 4 l -4 0 l 0 -4 z M 64 88 l 4 0 l 0 4 l -4 0 l 0 -4 z M 68 88 l 4 0 l 0 4 l -4 0 l 0 -4 z M 76 88 l 4 0 l 0 4 l -4 0 l 0 -4 z M 84 88 l 4 0 l 0 4 l -4 0 l 0 -4 z M 88 88 l 4 0 l 0 4 l -4 0 l 0 -4 z M 108 88 l 4 0 l 0 4 l -4 0 l 0 -4 z M 116 88 l 4 0 l 0 4 l -4 0 l 0 -4 z M 120 88 l 4 0 l 0 4 l -4 0 l 0 -4 z M 124 88 l 4 0 l 0 4 l -4 0 l 0 -4 z M 12 92 l 4 0 l 0 4 l -4 0 l 0 -4 z M 28 92 l 4 0 l 0 4 l -4 0 l 0 -4 z M 48 92 l 4 0 l 0 4 l -4 0 l 0 -4 z M 56 92 l 4 0 l 0 4 l -4 0 l 0 -4 z M 68 92 l 4 0 l 0 4 l -4 0 l 0 -4 z M 72 92 l 4 0 l 0 4 l -4 0 l 0 -4 z M 76 92 l 4 0 l 0 4 l -4 0 l 0 -4 z M 80 92 l 4 0 l 0 4 l -4 0 l 0 -4 z M 84 92 l 4 0 l 0 4 l -4 0 l 0 -4 z M 96 92 l 4 0 l 0 4 l -4 0 l 0 -4 z M 100 92 l 4 0 l 0 4 l -4 0 l 0 -4 z M 120 92 l 4 0 l 0 4 l -4 0 l 0 -4 z M 0 96 l 4 0 l 0 4 l -4 0 l 0 -4 z M 4 96 l 4 0 l 0 4 l -4 0 l 0 -4 z M 12 96 l 4 0 l 0 4 l -4 0 l 0 -4 z M 16 96 l 4 0 l 0 4 l -4 0 l 0 -4 z M 20 96 l 4 0 l 0 4 l -4 0 l 0 -4 z M 24 96 l 4 0 l 0 4 l -4 0 l 0 -4 z M 32 96 l 4 0 l 0 4 l -4 0 l 0 -4 z M 44 96 l 4 0 l 0 4 l -4 0 l 0 -4 z M 52 96 l 4 0 l 0 4 l -4 0 l 0 -4 z M 56 96 l 4 0 l 0 4 l -4 0 l 0 -4 z M 60 96 l 4 0 l 0 4 l -4 0 l 0 -4 z M 64 96 l 4 0 l 0 4 l -4 0 l 0 -4 z M 72 96 l 4 0 l 0 4 l -4 0 l 0 -4 z M 92 96 l 4 0 l 0 4 l -4 0 l 0 -4 z M 96 96 l 4 0 l 0 4 l -4 0 l 0 -4 z M 100 96 l 4 0 l 0 4 l -4 0 l 0 -4 z M 104 96 l 4 0 l 0 4 l -4 0 l 0 -4 z M 108 96 l 4 0 l 0 4 l -4 0 l 0 -4 z M 112 96 l 4 0 l 0 4 l -4 0 l 0 -4 z M 120 96 l 4 0 l 0 4 l -4 0 l 0 -4 z M 124 96 l 4 0 l 0 4 l -4 0 l 0 -4 z M 128 96 l 4 0 l 0 4 l -4 0 l 0 -4 z M 32 100 l 4 0 l 0 4 l -4 0 l 0 -4 z M 36 100 l 4 0 l 0 4 l -4 0 l 0 -4 z M 40 100 l 4 0 l 0 4 l -4 0 l 0 -4 z M 48 100 l 4 0 l 0 4 l -4 0 l 0 -4 z M 68 100 l 4 0 l 0 4 l -4 0 l 0 -4 z M 76 100 l 4 0 l 0 4 l -4 0 l 0 -4 z M 80 100 l 4 0 l 0 4 l -4 0 l 0 -4 z M 84 100 l 4 0 l 0 4 l -4 0 l 0 -4 z M 88 100 l 4 0 l 0 4 l -4 0 l 0 -4 z M 92 100 l 4 0 l 0 4 l -4 0 l 0 -4 z M 96 100 l 4 0 l 0 4 l -4 0 l 0 -4 z M 112 100 l 4 0 l 0 4 l -4 0 l 0 -4 z M 120 100 l 4 0 l 0 4 l -4 0 l 0 -4 z M 0 104 l 4 0 l 0 4 l -4 0 l 0 -4 z M 4 104 l 4 0 l 0 4 l -4 0 l 0 -4 z M 8 104 l 4 0 l 0 4 l -4 0 l 0 -4 z M 12 104 l 4 0 l 0 4 l -4 0 l 0 -4 z M 16 104 l 4 0 l 0 4 l -4 0 l 0 -4 z M 20 104 l 4 0 l 0 4 l -4 0 l 0 -4 z M 24 104 l 4 0 l 0 4 l -4 0 l 0 -4 z M 44 104 l 4 0 l 0 4 l -4 0 l 0 -4 z M 48 104 l 4 0 l 0 4 l -4 0 l 0 -4 z M 52 104 l 4 0 l 0 4 l -4 0 l 0 -4 z M 56 104 l 4 0 l 0 4 l -4 0 l 0 -4 z M 60 104 l 4 0 l 0 4 l -4 0 l 0 -4 z M 72 104 l 4 0 l 0 4 l -4 0 l 0 -4 z M 80 104 l 4 0 l 0 4 l -4 0 l 0 -4 z M 92 104 l 4 0 l 0 4 l -4 0 l 0 -4 z M 96 104 l 4 0 l 0 4 l -4 0 l 0 -4 z M 104 104 l 4 0 l 0 4 l -4 0 l 0 -4 z M 112 104 l 4 0 l 0 4 l -4 0 l 0 -4 z M 124 104 l 4 0 l 0 4 l -4 0 l 0 -4 z M 0 108 l 4 0 l 0 4 l -4 0 l 0 -4 z M 24 108 l 4 0 l 0 4 l -4 0 l 0 -4 z M 32 108 l 4 0 l 0 4 l -4 0 l 0 -4 z M 40 108 l 4 0 l 0 4 l -4 0 l 0 -4 z M 44 108 l 4 0 l 0 4 l -4 0 l 0 -4 z M 52 108 l 4 0 l 0 4 l -4 0 l 0 -4 z M 60 108 l 4 0 l 0 4 l -4 0 l 0 -4 z M 64 108 l 4 0 l 0 4 l -4 0 l 0 -4 z M 88 108 l 4 0 l 0 4 l -4 0 l 0 -4 z M 92 108 l 4 0 l 0 4 l -4 0 l 0 -4 z M 96 108 l 4 0 l 0 4 l -4 0 l 0 -4 z M 112 108 l 4 0 l 0 4 l -4 0 l 0 -4 z M 116 108 l 4 0 l 0 4 l -4 0 l 0 -4 z M 124 108 l 4 0 l 0 4 l -4 0 l 0 -4 z M 128 108 l 4 0 l 0 4 l -4 0 l 0 -4 z M 0 112 l 4 0 l 0 4 l -4 0 l 0 -4 z M 8 112 l 4 0 l 0 4 l -4 0 l 0 -4 z M 12 112 l 4 0 l 0 4 l -4 0 l 0 -4 z M 16 112 l 4 0 l 0 4 l -4 0 l 0 -4 z M 24 112 l 4 0 l 0 4 l -4 0 l 0 -4 z M 32 112 l 4 0 l 0 4 l -4 0 l 0 -4 z M 36 112 l 4 0 l 0 4 l -4 0 l 0 -4 z M 48 112 l 4 0 l 0 4 l -4 0 l 0 -4 z M 52 112 l 4 0 l 0 4 l -4 0 l 0 -4 z M 76 112 l 4 0 l 0 4 l -4 0 l 0 -4 z M 80 112 l 4 0 l 0 4 l -4 0 l 0 -4 z M 88 112 l 4 0 l 0 4 l -4 0 l 0 -4 z M 96 112 l 4 0 l 0 4 l -4 0 l 0 -4 z M 100 112 l 4 0 l 0 4 l -4 0 l 0 -4 z M 104 112 l 4 0 l 0 4 l -4 0 l 0 -4 z M 108 112 l 4 0 l 0 4 l -4 0 l 0 -4 z M 112 112 l 4 0 l 0 4 l -4 0 l 0 -4 z M 116 112 l 4 0 l 0 4 l -4 0 l 0 -4 z M 120 112 l 4 0 l 0 4 l -4 0 l 0 -4 z M 128 112 l 4 0 l 0 4 l -4 0 l 0 -4 z M 0 116 l 4 0 l 0 4 l -4 0 l 0 -4 z M 8 116 l 4 0 l 0 4 l -4 0 l 0 -4 z M 12 116 l 4 0 l 0 4 l -4 0 l 0 -4 z M 16 116 l 4 0 l 0 4 l -4 0 l 0 -4 z M 24 116 l 4 0 l 0 4 l -4 0 l 0 -4 z M 36 116 l 4 0 l 0 4 l -4 0 l 0 -4 z M 40 116 l 4 0 l 0 4 l -4 0 l 0 -4 z M 52 116 l 4 0 l 0 4 l -4 0 l 0 -4 z M 56 116 l 4 0 l 0 4 l -4 0 l 0 -4 z M 64 116 l 4 0 l 0 4 l -4 0 l 0 -4 z M 72 116 l 4 0 l 0 4 l -4 0 l 0 -4 z M 76 116 l 4 0 l 0 4 l -4 0 l 0 -4 z M 92 116 l 4 0 l 0 4 l -4 0 l 0 -4 z M 96 116 l 4 0 l 0 4 l -4 0 l 0 -4 z M 100 116 l 4 0 l 0 4 l -4 0 l 0 -4 z M 104 116 l 4 0 l 0 4 l -4 0 l 0 -4 z M 108 116 l 4 0 l 0 4 l -4 0 l 0 -4 z M 116 116 l 4 0 l 0 4 l -4 0 l 0 -4 z M 124 116 l 4 0 l 0 4 l -4 0 l 0 -4 z M 128 116 l 4 0 l 0 4 l -4 0 l 0 -4 z M 0 120 l 4 0 l 0 4 l -4 0 l 0 -4 z M 8 120 l 4 0 l 0 4 l -4 0 l 0 -4 z M 12 120 l 4 0 l 0 4 l -4 0 l 0 -4 z M 16 120 l 4 0 l 0 4 l -4 0 l 0 -4 z M 24 120 l 4 0 l 0 4 l -4 0 l 0 -4 z M 40 120 l 4 0 l 0 4 l -4 0 l 0 -4 z M 64 120 l 4 0 l 0 4 l -4 0 l 0 -4 z M 68 120 l 4 0 l 0 4 l -4 0 l 0 -4 z M 76 120 l 4 0 l 0 4 l -4 0 l 0 -4 z M 84 120 l 4 0 l 0 4 l -4 0 l 0 -4 z M 88 120 l 4 0 l 0 4 l -4 0 l 0 -4 z M 92 120 l 4 0 l 0 4 l -4 0 l 0 -4 z M 100 120 l 4 0 l 0 4 l -4 0 l 0 -4 z M 108 120 l 4 0 l 0 4 l -4 0 l 0 -4 z M 112 120 l 4 0 l 0 4 l -4 0 l 0 -4 z M 116 120 l 4 0 l 0 4 l -4 0 l 0 -4 z M 120 120 l 4 0 l 0 4 l -4 0 l 0 -4 z M 0 124 l 4 0 l 0 4 l -4 0 l 0 -4 z M 24 124 l 4 0 l 0 4 l -4 0 l 0 -4 z M 32 124 l 4 0 l 0 4 l -4 0 l 0 -4 z M 36 124 l 4 0 l 0 4 l -4 0 l 0 -4 z M 40 124 l 4 0 l 0 4 l -4 0 l 0 -4 z M 48 124 l 4 0 l 0 4 l -4 0 l 0 -4 z M 56 124 l 4 0 l 0 4 l -4 0 l 0 -4 z M 68 124 l 4 0 l 0 4 l -4 0 l 0 -4 z M 72 124 l 4 0 l 0 4 l -4 0 l 0 -4 z M 76 124 l 4 0 l 0 4 l -4 0 l 0 -4 z M 80 124 l 4 0 l 0 4 l -4 0 l 0 -4 z M 84 124 l 4 0 l 0 4 l -4 0 l 0 -4 z M 92 124 l 4 0 l 0 4 l -4 0 l 0 -4 z M 100 124 l 4 0 l 0 4 l -4 0 l 0 -4 z M 104 124 l 4 0 l 0 4 l -4 0 l 0 -4 z M 112 124 l 4 0 l 0 4 l -4 0 l 0 -4 z M 120 124 l 4 0 l 0 4 l -4 0 l 0 -4 z M 0 128 l 4 0 l 0 4 l -4 0 l 0 -4 z M 4 128 l 4 0 l 0 4 l -4 0 l 0 -4 z M 8 128 l 4 0 l 0 4 l -4 0 l 0 -4 z M 12 128 l 4 0 l 0 4 l -4 0 l 0 -4 z M 16 128 l 4 0 l 0 4 l -4 0 l 0 -4 z M 20 128 l 4 0 l 0 4 l -4 0 l 0 -4 z M 24 128 l 4 0 l 0 4 l -4 0 l 0 -4 z M 32 128 l 4 0 l 0 4 l -4 0 l 0 -4 z M 44 128 l 4 0 l 0 4 l -4 0 l 0 -4 z M 52 128 l 4 0 l 0 4 l -4 0 l 0 -4 z M 56 128 l 4 0 l 0 4 l -4 0 l 0 -4 z M 60 128 l 4 0 l 0 4 l -4 0 l 0 -4 z M 64 128 l 4 0 l 0 4 l -4 0 l 0 -4 z M 72 128 l 4 0 l 0 4 l -4 0 l 0 -4 z M 92 128 l 4 0 l 0 4 l -4 0 l 0 -4 z M 100 128 l 4 0 l 0 4 l -4 0 l 0 -4 z M 120 128 l 4 0 l 0 4 l -4 0 l 0 -4 z M 128 128 l 4 0 l 0 4 l -4 0 l 0 -4 z" stroke-linecap="round" />
</g>
</svg>