<?xml version="1.0" encoding="UTF-8" standalone="no" ?>
<!DOCTYPE svg PUBLIC "-//W3C//DTD SVG 1.1//EN" "http://www.w3.org/Graphics/SVG/1.1/DTD/svg11.dtd">
<svg xmlns="http://www.w3.org/2000/svg" xmlns:xlink="http://www.w3.org/1999/xlink" version="1.1" width="377.95275591000006" height="302.362204728" viewBox="0 0 916.25 733" xml:space="preserve">
<desc>Created with Fabric.js 3.2.0</desc>
<defs>
</defs>
<g transform="matrix(0.59 0 0 0.68 458.125 366.5)"  >
<g style=""   >
		<g transform="matrix(1 0 0 1 0.35 0.05)"  >
<polygon style="stroke: none; stroke-width: 1; stroke-dasharray: none; stroke-linecap: butt; stroke-dashoffset: 0; stroke-linejoin: miter; stroke-miterlimit: 10; fill: rgb(64,71,98); fill-rule: nonzero; opacity: 1;"  points="38.85,-36.2 36.15,-38.9 0.05,-2.7 -36.15,-38.9 -38.85,-36.2 -2.65,0 -38.85,36.2 -36.15,38.9 0.05,2.7 36.15,38.9 38.85,36.2 2.75,0 " />
</g>
</g>
</g>
<g transform="matrix(1 0 0 1 406.7287109375 367.102)" style=""  >
		<text xml:space="preserve" font-family="Roboto Slab" font-size="20" font-style="normal" font-weight="normal" style="stroke: none; stroke-width: 1; stroke-dasharray: none; stroke-linecap: butt; stroke-dashoffset: 0; stroke-linejoin: miter; stroke-miterlimit: 10; fill: rgb(64,71,98); fill-rule: nonzero; opacity: 1; white-space: pre;" ><tspan x="-23.8037109375" y="6.2828" >West</tspan></text>
</g>
<g transform="matrix(1 0 0 1 504.4220703125 366.442)" style=""  >
		<text xml:space="preserve" font-family="Roboto Slab" font-size="20" font-style="normal" font-weight="normal" style="stroke: none; stroke-width: 1; stroke-dasharray: none; stroke-linecap: butt; stroke-dashoffset: 0; stroke-linejoin: miter; stroke-miterlimit: 10; fill: rgb(64,71,98); fill-rule: nonzero; opacity: 1; white-space: pre;" ><tspan x="-21.9970703125" y="6.2828" >Ville</tspan></text>
</g>
<g transform="matrix(0.4 0 0 0.45 458.125 371.155)"  >
<g style=""   >
</g>
</g>
<g transform="matrix(0.59 0 0 0.59 458.101015625 394.5945)" style=""  >
		<text xml:space="preserve" font-family="Hammersmith One" font-size="20" font-style="normal" font-weight="normal" style="stroke: none; stroke-width: 1; stroke-dasharray: none; stroke-linecap: butt; stroke-dashoffset: 0; stroke-linejoin: miter; stroke-miterlimit: 10; fill: rgb(64,71,98); fill-rule: nonzero; opacity: 1; white-space: pre;" ><tspan x="-46.6796875" y="6.2828" >SINCE 1611</tspan></text>
</g>
<g transform="matrix(2.59 0 0 2.59 458.7800097656 357.5545)" style=""  >
		<text xml:space="preserve" font-family="UnifrakturMaguntia" font-size="20" font-style="normal" font-weight="normal" style="stroke: none; stroke-width: 1; stroke-dasharray: none; stroke-linecap: butt; stroke-dashoffset: 0; stroke-linejoin: miter; stroke-miterlimit: 10; fill: rgb(64,71,98); fill-rule: nonzero; opacity: 1; white-space: pre;" ><tspan x="-37.4169921875" y="6.2828" >Medieval</tspan></text>
</g>
<g transform="matrix(0.37 0 0 0.22 458.125 458.852)"  >
<g style=""   >
		<g transform="matrix(1 0 0 1 -1.4 17.6)"  >
<rect style="stroke: none; stroke-width: 1; stroke-dasharray: none; stroke-linecap: butt; stroke-dashoffset: 0; stroke-linejoin: miter; stroke-miterlimit: 10; fill: rgb(64,71,98); fill-rule: nonzero; opacity: 1;"  x="-254.5" y="-1.25" rx="0" ry="0" width="509" height="2.5" />
</g>
</g>
</g>
<g transform="matrix(1 0 0 1 457.561002594 479.115)" style=""  >
		<text xml:space="preserve" font-family="Josefin Sans" font-size="20" font-style="normal" font-weight="normal" style="stroke: none; stroke-width: 1; stroke-dasharray: none; stroke-linecap: butt; stroke-dashoffset: 0; stroke-linejoin: miter; stroke-miterlimit: 10; fill: rgb(64,71,98); fill-rule: nonzero; opacity: 1; white-space: pre;" ><tspan x="-94.480002594" y="6.2828" >UNIVERSITY PRESS</tspan></text>
</g>
<g transform="matrix(1.25 0 0 1.25 457.2184996185 448.365)" style=""  >
		<text xml:space="preserve" font-family="Montserrat" font-size="20" font-style="normal" font-weight="bold" style="stroke: none; stroke-width: 1; stroke-dasharray: none; stroke-linecap: butt; stroke-dashoffset: 0; stroke-linejoin: miter; stroke-miterlimit: 10; fill: rgb(64,71,98); fill-rule: nonzero; opacity: 1; white-space: pre;" ><tspan x="-75.7699996948" y="6.2828" >COPENHAGEN</tspan></text>
</g>
<g transform="matrix(0.37 0 0 0.22 458.125 365.852)"  >
<g style=""   >
		<g transform="matrix(1 0 0 1 -1.4 17.6)"  >
<rect style="stroke: none; stroke-width: 1; stroke-dasharray: none; stroke-linecap: butt; stroke-dashoffset: 0; stroke-linejoin: miter; stroke-miterlimit: 10; fill: rgb(64,71,98); fill-rule: nonzero; opacity: 1;"  x="-254.5" y="-1.25" rx="0" ry="0" width="509" height="2.5" />
</g>
</g>
</g>
<g transform="matrix(1 0 0 1 457.561002594 386.115)" style=""  >
		<text xml:space="preserve" font-family="Josefin Sans" font-size="20" font-style="normal" font-weight="normal" style="stroke: none; stroke-width: 1; stroke-dasharray: none; stroke-linecap: butt; stroke-dashoffset: 0; stroke-linejoin: miter; stroke-miterlimit: 10; fill: rgb(64,71,98); fill-rule: nonzero; opacity: 1; white-space: pre;" ><tspan x="-94.480002594" y="6.2828" >UNIVERSITY PRESS</tspan></text>
</g>
<g transform="matrix(1.25 0 0 1.25 457.2184996185 355.365)" style=""  >
		<text xml:space="preserve" font-family="Montserrat" font-size="20" font-style="normal" font-weight="bold" style="stroke: none; stroke-width: 1; stroke-dasharray: none; stroke-linecap: butt; stroke-dashoffset: 0; stroke-linejoin: miter; stroke-miterlimit: 10; fill: rgb(64,71,98); fill-rule: nonzero; opacity: 1; white-space: pre;" ><tspan x="-75.7699996948" y="6.2828" >COPENHAGEN</tspan></text>
</g>
</svg>