<?xml version="1.0" encoding="UTF-8" standalone="no" ?>
<!DOCTYPE svg PUBLIC "-//W3C//DTD SVG 1.1//EN" "http://www.w3.org/Graphics/SVG/1.1/DTD/svg11.dtd">
<svg xmlns="http://www.w3.org/2000/svg" xmlns:xlink="http://www.w3.org/1999/xlink" version="1.1" width="302.362204728" height="226.77165354599998" viewBox="0 0 547.2 410.4" xml:space="preserve">
<desc>Created with Fabric.js 3.2.0</desc>
<defs>
</defs>
<g transform="matrix(0.54 0 0 0.57 273.6 205.2)"  >
<g style=""   >
		<g transform="matrix(1 0 0 1 0.7 -7.35)"  >
<path style="stroke: none; stroke-width: 1; stroke-dasharray: none; stroke-linecap: butt; stroke-dashoffset: 0; stroke-linejoin: miter; stroke-miterlimit: 10; fill: rgb(64,71,98); fill-rule: nonzero; opacity: 1;"  transform=" translate(115.9, -1221.7)" d="M -104.9 1201.7 c -5 0 -9.3 3.2 -11 7.6 c -1.7 -4.4 -6 -7.6 -11 -7.6 c -6.5 0 -11.8 5.3 -11.8 11.8 c 0 12.7 22.8 28.2 22.8 28.2 s 22.7 -15.6 22.8 -28.2 C -93.1 1207 -98.4 1201.7 -104.9 1201.7 z" stroke-linecap="round" />
</g>
</g>
</g>
<g transform="matrix(1.32 0 0 1.32 212.0427991943 201.5315)" style=""  >
		<text xml:space="preserve" font-family="Josefin Sans" font-size="20" font-style="normal" font-weight="normal" style="stroke: none; stroke-width: 1; stroke-dasharray: none; stroke-linecap: butt; stroke-dashoffset: 0; stroke-linejoin: miter; stroke-miterlimit: 10; fill: rgb(64,71,98); fill-rule: nonzero; opacity: 1; white-space: pre;" ><tspan x="-26.4899993896" y="6.2828" >ALEX</tspan></text>
</g>
<g transform="matrix(1.32 0 0 1.32 338.0668022156 201.5315)" style=""  >
		<text xml:space="preserve" font-family="Josefin Sans" font-size="20" font-style="normal" font-weight="normal" style="stroke: none; stroke-width: 1; stroke-dasharray: none; stroke-linecap: butt; stroke-dashoffset: 0; stroke-linejoin: miter; stroke-miterlimit: 10; fill: rgb(64,71,98); fill-rule: nonzero; opacity: 1; white-space: pre;" ><tspan x="-26.4400016785" y="6.2828" >SARA</tspan></text>
</g>
</svg>