<?xml version="1.0" encoding="UTF-8" standalone="no" ?>
<!DOCTYPE svg PUBLIC "-//W3C//DTD SVG 1.1//EN" "http://www.w3.org/Graphics/SVG/1.1/DTD/svg11.dtd">
<svg xmlns="http://www.w3.org/2000/svg" xmlns:xlink="http://www.w3.org/1999/xlink" version="1.1" width="377.95275591000006" height="302.362204728" viewBox="0 0 916.25 733" xml:space="preserve">
<desc>Created with Fabric.js 3.2.0</desc>
<defs>
</defs>
<g transform="matrix(1 0 0 1 590.0889836289 165.5)"  >
<g style=""   >
		<g transform="matrix(1 0 0 1 0.707218118 -18.88)"  >
<path style="stroke: none; stroke-width: 1; stroke-dasharray: none; stroke-linecap: butt; stroke-dashoffset: 0; stroke-linejoin: round; stroke-miterlimit: 1.41; fill: rgb(196,5,5); fill-rule: evenodd; opacity: 1;"  transform=" translate(-32.707218118, -13.12)" d="M 15.5 18.78 s -4.11 -6.57 2.95 -11.33 c 0 0 -2.14 7.72 3.12 8.54 c 5.26 0.82 -6.08 2.8 -6.08 2.8 m 34.43 -0.01 s 4.1 -6.57 -2.96 -11.33 c 0 0 2.14 7.72 -3.12 8.54 c -5.26 0.82 6.08 2.8 6.08 2.8" stroke-linecap="round" />
</g>
		<g transform="matrix(1 0 0 1 2.1720549694 16.4128462046)"  >
<path style="stroke: none; stroke-width: 1; stroke-dasharray: none; stroke-linecap: butt; stroke-dashoffset: 0; stroke-linejoin: round; stroke-miterlimit: 1.41; fill: rgb(196,5,5); fill-rule: nonzero; opacity: 1;"  transform=" translate(-34.1720549694, -48.4128462046)" d="M 11.13 38.59 l 0.9 0.57 l 0.24 1.04 l -0.04 0.23 a 15.17 15.17 0 0 0 -0.16 1.66 a 13.3 13.3 0 0 0 1.91 7.35 a 11.56 11.56 0 0 0 5.14 4.48 c 1.79 0.83 3.74 1.27 5.7 1.44 c 1.85 0.16 3.75 0.09 5.54 -0.47 a 10.21 10.21 0 0 0 4.23 -2.54 c 0.85 -0.79 1.6 -1.68 2.3 -2.6 c 0.66 -0.85 1.29 -1.73 1.93 -2.6 l 0.28 -0.38 l 0.73 -0.96 c 0.49 -0.61 0.99 -1.21 1.52 -1.78 a 15.25 15.25 0 0 1 3.19 -2.72 a 14 14 0 0 1 5.82 -2.13 a 13.7 13.7 0 0 1 1.93 -0.13 c 0.63 0.02 1.26 0.1 1.87 0.27 a 6.66 6.66 0 0 1 3.19 1.93 a 7.25 7.25 0 0 1 1.7 5.33 a 7.91 7.91 0 0 1 -2.2 4.95 a 6.65 6.65 0 0 1 -3.28 1.8 c -0.77 0.16 -1.57 0.2 -2.36 0.11 a 10.87 10.87 0 0 1 -4.36 -1.47 l -0.67 -0.84 l 0.12 -1.06 l 0.84 -0.67 l 1.06 0.12 a 14.5 14.5 0 0 0 1.53 0.7 l 0.46 0.17 a 5.68 5.68 0 0 0 2.95 0.16 a 3.98 3.98 0 0 0 1.43 -0.73 a 4.66 4.66 0 0 0 1.6 -2.84 a 5.18 5.18 0 0 0 0.08 -1.46 a 4.3 4.3 0 0 0 -0.97 -2.39 a 3.46 3.46 0 0 0 -1.09 -0.82 a 5.04 5.04 0 0 0 -2.32 -0.46 a 12.4 12.4 0 0 0 -3.51 0.68 a 11.09 11.09 0 0 0 -3.88 2.34 c -0.9 0.8 -1.7 1.72 -2.44 2.67 c -0.72 0.9 -1.39 1.85 -2.07 2.78 l -0.29 0.38 c -0.4 0.55 -0.82 1.09 -1.25 1.62 c -0.68 0.82 -1.4 1.61 -2.2 2.33 a 13.08 13.08 0 0 1 -5.4 3.02 c -1.07 0.3 -2.18 0.47 -3.3 0.53 a 20.77 20.77 0 0 1 -8.02 -1.11 a 15.9 15.9 0 0 1 -2.9 -1.34 a 14.48 14.48 0 0 1 -5.54 -5.78 a 15.64 15.64 0 0 1 -1.58 -4.69 a 16.61 16.61 0 0 1 0.02 -5.55 l 0.57 -0.9 l 1.04 -0.24 z" stroke-linecap="round" />
</g>
		<g transform="matrix(1 0 0 1 0.76 1.96)"  >
<ellipse style="stroke: none; stroke-width: 1; stroke-dasharray: none; stroke-linecap: butt; stroke-dashoffset: 0; stroke-linejoin: round; stroke-miterlimit: 1.41; fill: rgb(237,175,6); fill-rule: evenodd; opacity: 1;"  cx="0" cy="0" rx="24.56" ry="21.8" />
</g>
		<g transform="matrix(1 0 0 1 1.7 0.85)" clip-path="url(#CLIPPATH_3)"  >
<clipPath id="CLIPPATH_3" >
	<ellipse transform="matrix(1 0 0 1 -0.94 1.11)" id="a" cx="0" cy="0" rx="24.56" ry="21.8" />
</clipPath>
<ellipse style="stroke: none; stroke-width: 1; stroke-dasharray: none; stroke-linecap: butt; stroke-dashoffset: 0; stroke-linejoin: round; stroke-miterlimit: 1.41; fill: rgb(250,201,64); fill-rule: evenodd; opacity: 1;"  cx="0" cy="0" rx="24.56" ry="21.8" />
</g>
		<g transform="matrix(1 0 0 1 -11.8507431105 0.0978633867)"  >
<radialGradient id="SVGID_1" gradientUnits="userSpaceOnUse" gradientTransform="matrix(2.927311562 0.8899433573 -0.8899433573 2.927311562 20.2349575156 31.5334700281)"  cx="0" cy="0" r="1" fx="0" fy="0">
<stop offset="0%" style="stop-color:rgb(29,29,29);stop-opacity: 1"/>
<stop offset="100%" style="stop-color:rgb(0,0,0);stop-opacity: 1"/>
</radialGradient>
<path style="stroke: none; stroke-width: 1; stroke-dasharray: none; stroke-linecap: butt; stroke-dashoffset: 0; stroke-linejoin: round; stroke-miterlimit: 1.41; fill: url(#SVGID_1); fill-rule: evenodd; opacity: 1;"  transform=" translate(-20.1492568895, -32.0978633867)" d="M 17.87 29.59 l 5.15 2.44 s 0.18 0.1 0.06 0.5 a 2.91 2.91 0 0 1 -3.73 1.93 a 3.06 3.06 0 0 1 -2.04 -3.82 c 0.12 -0.4 0.56 -1.06 0.56 -1.06 z" stroke-linecap="round" />
</g>
		<g transform="matrix(1 0 0 1 -12.9195074104 0.1815747671)" clip-path="url(#CLIPPATH_4)"  >
<clipPath id="CLIPPATH_4" >
	<path transform="matrix(1 0 0 1 1.0687642999 -0.0837113804) translate(-20.1492568895, -32.0978633867)" id="c" d="M 17.87 29.59 l 5.15 2.44 s 0.18 0.1 0.06 0.5 a 2.91 2.91 0 0 1 -3.73 1.93 a 3.06 3.06 0 0 1 -2.04 -3.82 c 0.12 -0.4 0.56 -1.06 0.56 -1.06 z" stroke-linecap="round" />
</clipPath>
<path style="stroke: none; stroke-width: 1; stroke-dasharray: none; stroke-linecap: butt; stroke-dashoffset: 0; stroke-linejoin: round; stroke-miterlimit: 1.41; fill: rgb(255,255,255); fill-rule: evenodd; opacity: 1;"  transform=" translate(-19.0804925896, -32.1815747671)" d="M 18.88 31.42 a 1.33 1.33 0 1 1 -0.77 2.54 a 1.33 1.33 0 0 1 0.77 -2.54 z m 1.49 -1.09 a 0.67 0.67 0 1 1 -0.4 1.27 a 0.67 0.67 0 0 1 0.4 -1.27 z" stroke-linecap="round" />
</g>
		<g transform="matrix(1 0 0 1 -10.73 -4.92)"  >
<path style="stroke: none; stroke-width: 1; stroke-dasharray: none; stroke-linecap: butt; stroke-dashoffset: 0; stroke-linejoin: round; stroke-miterlimit: 1.41; fill: rgb(46,13,25); fill-rule: nonzero; opacity: 1;"  transform=" translate(-21.27, -27.08)" d="M 20.2 25.15 l 3.15 2.68 l 0.26 0.53 l -0.18 0.56 l -0.53 0.27 l -0.56 -0.18 l -3.14 -2.67 l -0.27 -0.53 l 0.18 -0.56 v -0.01 l 0.53 -0.27 l 0.56 0.18 z" stroke-linecap="round" />
</g>
		<g transform="matrix(1 0 0 1 13.2636720736 0.0994201652)"  >
<radialGradient id="SVGID_2" gradientUnits="userSpaceOnUse" gradientTransform="matrix(-2.92733 0.8899 0.8899 2.92733 45.18 31.53)"  cx="0" cy="0" r="1" fx="0" fy="0">
<stop offset="0%" style="stop-color:rgb(29,29,29);stop-opacity: 1"/>
<stop offset="100%" style="stop-color:rgb(0,0,0);stop-opacity: 1"/>
</radialGradient>
<path style="stroke: none; stroke-width: 1; stroke-dasharray: none; stroke-linecap: butt; stroke-dashoffset: 0; stroke-linejoin: round; stroke-miterlimit: 1.41; fill: url(#SVGID_2); fill-rule: evenodd; opacity: 1;"  transform=" translate(-45.2636720736, -32.0994201652)" d="M 47.54 29.59 l -5.15 2.44 s -0.17 0.1 -0.06 0.5 a 2.91 2.91 0 0 0 3.74 1.93 a 3.06 3.06 0 0 0 2.03 -3.82 a 5.51 5.51 0 0 0 -0.56 -1.06 z" stroke-linecap="round" />
</g>
		<g transform="matrix(1 0 0 1 14.3185600174 0.1843001097)" clip-path="url(#CLIPPATH_5)"  >
<clipPath id="CLIPPATH_5" >
	<path transform="matrix(1 0 0 1 -1.0548879438 -0.0848799445) translate(-45.2636720736, -32.0994201652)" id="e" d="M 47.54 29.59 l -5.15 2.44 s -0.17 0.1 -0.06 0.5 a 2.91 2.91 0 0 0 3.74 1.93 a 3.06 3.06 0 0 0 2.03 -3.82 a 5.51 5.51 0 0 0 -0.56 -1.06 z" stroke-linecap="round" />
</clipPath>
<path style="stroke: none; stroke-width: 1; stroke-dasharray: none; stroke-linecap: butt; stroke-dashoffset: 0; stroke-linejoin: round; stroke-miterlimit: 1.41; fill: rgb(255,255,255); fill-rule: evenodd; opacity: 1;"  transform=" translate(-46.3185600174, -32.1843001097)" d="M 46.53 31.42 a 1.33 1.33 0 1 0 0.77 2.54 a 1.33 1.33 0 0 0 -0.77 -2.54 z m -1.48 -1.09 a 0.67 0.67 0 1 0 0.38 1.27 a 0.67 0.67 0 0 0 -0.38 -1.27 z" stroke-linecap="round" />
</g>
		<g transform="matrix(1 0 0 1 2.7429319303 2.0123373693)"  >
<path style="stroke: none; stroke-width: 1; stroke-dasharray: none; stroke-linecap: butt; stroke-dashoffset: 0; stroke-linejoin: round; stroke-miterlimit: 1.41; fill: rgb(46,13,25); fill-rule: nonzero; opacity: 1;"  transform=" translate(-34.7429319303, -34.0123373693)" d="M 45.87 24.86 l 0.18 0.57 l -0.26 0.53 l -3.15 2.67 l -0.56 0.18 l -0.53 -0.27 l -0.18 -0.57 l 0.26 -0.52 l 3.15 -2.68 l 0.56 -0.18 l 0.53 0.27 z m -3.9 12.3 a 3.67 3.67 0 0 1 -0.1 1.13 a 4.8 4.8 0 0 1 -1.37 2.26 a 7.72 7.72 0 0 1 -2.23 1.58 a 10.93 10.93 0 0 1 -2.38 0.88 l -0.36 0.09 a 18.1 18.1 0 0 1 -1.6 0.26 l -0.37 0.03 a 11.32 11.32 0 0 1 -1.33 0.04 h -0.14 a 21.94 21.94 0 0 1 -1.07 -0.1 l -0.36 -0.05 a 15.03 15.03 0 0 1 -2.28 -0.57 c -0.3 -0.1 -0.6 -0.23 -0.88 -0.36 l -0.28 -0.13 a 10.9 10.9 0 0 1 -1.73 -1.1 a 6.94 6.94 0 0 1 -1.5 -1.72 a 4.32 4.32 0 0 1 -0.52 -1.52 a 3.74 3.74 0 0 1 -0.03 -0.68 v -0.04 l 0.21 -0.2 l 0.2 0.2 a 3.04 3.04 0 0 0 0.17 0.77 A 3.42 3.42 0 0 0 24.6 39 a 4.38 4.38 0 0 0 1.03 1 a 6.43 6.43 0 0 0 0.96 0.58 a 10.4 10.4 0 0 0 2.82 0.98 l 0.34 0.07 a 12.45 12.45 0 0 0 1.11 0.16 l 0.33 0.03 l 0.39 0.03 l 0.36 0.02 l 0.33 0.01 l 0.44 0.01 a 15 15 0 0 0 1.1 -0.02 a 14.5 14.5 0 0 0 2.64 -0.37 a 11.43 11.43 0 0 0 2.61 -1 c 0.37 -0.21 0.72 -0.45 1.04 -0.72 a 4.66 4.66 0 0 0 1.19 -1.53 a 3.24 3.24 0 0 0 0.27 -1.08 l 0.2 -0.2 l 0.2 0.2 z" stroke-linecap="round" />
</g>
		<g transform="matrix(1 0 0 1 2.1712546176 16.4075401247)"  >
<path style="stroke: none; stroke-width: 1; stroke-dasharray: none; stroke-linecap: butt; stroke-dashoffset: 0; stroke-linejoin: round; stroke-miterlimit: 1.41; fill: rgb(196,5,5); fill-rule: nonzero; opacity: 1;"  transform=" translate(-34.1712546176, -48.4075401247)" d="M 11.13 38.59 l 0.9 0.57 l 0.24 1.04 l -0.04 0.23 a 13.32 13.32 0 0 0 1.8 9.08 a 11.72 11.72 0 0 0 5.09 4.4 c 1.79 0.84 3.74 1.28 5.7 1.45 c 1.81 0.15 3.67 0.09 5.43 -0.44 a 10.45 10.45 0 0 0 4.35 -2.57 c 0.84 -0.79 1.58 -1.68 2.29 -2.6 c 0.66 -0.85 1.29 -1.73 1.93 -2.6 l 0.28 -0.38 l 0.73 -0.96 c 0.49 -0.61 0.99 -1.21 1.52 -1.78 a 15.05 15.05 0 0 1 5.53 -3.93 a 14.85 14.85 0 0 1 4.67 -1.04 c 0.84 -0.04 1.7 0.03 2.51 0.24 a 6.74 6.74 0 0 1 3.13 1.78 a 7.2 7.2 0 0 1 1.86 5.47 a 7.9 7.9 0 0 1 -1.85 4.6 a 6.79 6.79 0 0 1 -3.28 2.09 a 7.2 7.2 0 0 1 -1.98 0.24 a 8.7 8.7 0 0 1 -2.67 -0.45 l -0.82 -0.69 l -0.1 -1.06 l 0.7 -0.82 l 1.06 -0.1 a 9 9 0 0 0 1.2 0.27 a 4.8 4.8 0 0 0 2.16 -0.19 a 3.68 3.68 0 0 0 1.2 -0.7 a 4.74 4.74 0 0 0 1.54 -2.95 a 5.17 5.17 0 0 0 -0.33 -2.71 c -0.2 -0.46 -0.5 -0.88 -0.87 -1.22 a 3.7 3.7 0 0 0 -1.37 -0.78 c -0.42 -0.13 -0.85 -0.2 -1.3 -0.22 a 7.14 7.14 0 0 0 -1.78 0.12 a 11.06 11.06 0 0 0 -6.16 2.96 c -0.9 0.81 -1.69 1.73 -2.43 2.69 c -0.7 0.88 -1.34 1.8 -2 2.7 l -0.29 0.37 c -0.4 0.55 -0.82 1.09 -1.25 1.62 c -0.68 0.82 -1.4 1.61 -2.2 2.33 a 13.08 13.08 0 0 1 -5.4 3.02 c -1.07 0.3 -2.18 0.47 -3.3 0.53 a 20.77 20.77 0 0 1 -8.02 -1.11 a 15.9 15.9 0 0 1 -2.9 -1.34 a 14.48 14.48 0 0 1 -5.54 -5.78 a 15.64 15.64 0 0 1 -1.58 -4.69 a 16.61 16.61 0 0 1 0.02 -5.55 l 0.57 -0.9 c 0.35 -0.09 0.7 -0.3 1.05 -0.24 z" stroke-linecap="round" />
</g>
		<g transform="matrix(1 0 0 1 -21.39 4.23)"  >
<path style="stroke: none; stroke-width: 1; stroke-dasharray: none; stroke-linecap: butt; stroke-dashoffset: 0; stroke-linejoin: round; stroke-miterlimit: 1.41; fill: rgb(196,5,5); fill-rule: evenodd; opacity: 1;"  transform=" translate(-10.61, -36.23)" d="M 11.98 31.28 l 3.24 9.9 L 6 39.83 l 5.98 -8.54 z" stroke-linecap="round" />
</g>
</g>
</g>
</svg>