<?xml version="1.0" encoding="UTF-8" standalone="no" ?>
<!DOCTYPE svg PUBLIC "-//W3C//DTD SVG 1.1//EN" "http://www.w3.org/Graphics/SVG/1.1/DTD/svg11.dtd">
<svg xmlns="http://www.w3.org/2000/svg" xmlns:xlink="http://www.w3.org/1999/xlink" version="1.1" width="302.362204728" height="226.771653546" viewBox="0 0 733 549.75" xml:space="preserve">
<desc>Created with Fabric.js 3.2.0</desc>
<defs>
</defs>
<g transform="matrix(0.54 0 0 0.57 366.5 274.875)"  >
<g style=""   >
		<g transform="matrix(1 0 0 1 0.7 -7.35)"  >
<path style="stroke: none; stroke-width: 1; stroke-dasharray: none; stroke-linecap: butt; stroke-dashoffset: 0; stroke-linejoin: miter; stroke-miterlimit: 10; fill: rgb(64,71,98); fill-rule: nonzero; opacity: 1;"  transform=" translate(115.9, -1221.7)" d="M -104.9 1201.7 c -5 0 -9.3 3.2 -11 7.6 c -1.7 -4.4 -6 -7.6 -11 -7.6 c -6.5 0 -11.8 5.3 -11.8 11.8 c 0 12.7 22.8 28.2 22.8 28.2 s 22.7 -15.6 22.8 -28.2 C -93.1 1207 -98.4 1201.7 -104.9 1201.7 z" stroke-linecap="round" />
</g>
</g>
</g>
<g transform="matrix(1.32 0 0 1.32 304.9427991943 271.2065)" style=""  >
		<text xml:space="preserve" font-family="Josefin Sans" font-size="20" font-style="normal" font-weight="normal" style="stroke: none; stroke-width: 1; stroke-dasharray: none; stroke-linecap: butt; stroke-dashoffset: 0; stroke-linejoin: miter; stroke-miterlimit: 10; fill: rgb(64,71,98); fill-rule: nonzero; opacity: 1; white-space: pre;" ><tspan x="-26.4899993896" y="6.2828" >ALEX</tspan></text>
</g>
<g transform="matrix(1.32 0 0 1.32 430.9668022156 271.2065)" style=""  >
		<text xml:space="preserve" font-family="Josefin Sans" font-size="20" font-style="normal" font-weight="normal" style="stroke: none; stroke-width: 1; stroke-dasharray: none; stroke-linecap: butt; stroke-dashoffset: 0; stroke-linejoin: miter; stroke-miterlimit: 10; fill: rgb(64,71,98); fill-rule: nonzero; opacity: 1; white-space: pre;" ><tspan x="-26.4400016785" y="6.2828" >SARA</tspan></text>
</g>
<g transform="matrix(0.29 0 0 0.22 366.5 274.875)"  >
<g style=""   >
</g>
</g>
<g transform="matrix(0.64 0 0 0.64 369.0656008301 253.27)" style=""  >
		<text xml:space="preserve" font-family="Libre Baskerville" font-size="20" font-style="italic" font-weight="normal" style="stroke: none; stroke-width: 1; stroke-dasharray: none; stroke-linecap: butt; stroke-dashoffset: 0; stroke-linejoin: miter; stroke-miterlimit: 10; fill: rgb(64,71,98); fill-rule: nonzero; opacity: 1; white-space: pre;" ><tspan x="-44.040001297" y="6.2828" >Est. 1989</tspan></text>
</g>
<g transform="matrix(1.37 0 0 1.37 364.9952965508 276.214)" style=""  >
		<text xml:space="preserve" font-family="Libre Baskerville" font-size="20" font-style="normal" font-weight="normal" style="stroke: none; stroke-width: 1; stroke-dasharray: none; stroke-linecap: butt; stroke-dashoffset: 0; stroke-linejoin: miter; stroke-miterlimit: 10; fill: rgb(64,71,98); fill-rule: nonzero; opacity: 1; white-space: pre;" ><tspan x="-70.1899974823" y="6.2828" >Smith &amp; Sons</tspan></text>
</g>
<g transform="matrix(0.73 0 0 0.73 365.1517028961 298.282)" style=""  >
		<text xml:space="preserve" font-family="Libre Baskerville" font-size="20" font-style="normal" font-weight="normal" style="stroke: none; stroke-width: 1; stroke-dasharray: none; stroke-linecap: butt; stroke-dashoffset: 0; stroke-linejoin: miter; stroke-miterlimit: 10; fill: rgb(64,71,98); fill-rule: nonzero; opacity: 1; white-space: pre;" ><tspan x="-51.7900039673" y="6.2828" >VINTAGE</tspan></text>
</g>
<g transform="matrix(0.4 0 0 0.42 366.5 263.931)"  >
<g style=""   >
</g>
</g>
<g transform="matrix(1.28 0 0 1.28 366.498 228.292)" style=""  >
		<text xml:space="preserve" font-family="Muli" font-size="20" font-style="normal" font-weight="bold" style="stroke: none; stroke-width: 1; stroke-dasharray: none; stroke-linecap: butt; stroke-dashoffset: 0; stroke-linejoin: miter; stroke-miterlimit: 10; fill: rgb(64,71,98); fill-rule: nonzero; opacity: 1; white-space: pre;" ><tspan x="-32.85" y="6.2828" >FLASH</tspan></text>
</g>
<g transform="matrix(4.64 0 0 4.64 366.716798584 281.81)" style=""  >
		<text xml:space="preserve" font-family="Francois One" font-size="20" font-style="normal" font-weight="normal" style="stroke: none; stroke-width: 1; stroke-dasharray: none; stroke-linecap: butt; stroke-dashoffset: 0; stroke-linejoin: miter; stroke-miterlimit: 10; fill: rgb(64,71,98); fill-rule: nonzero; opacity: 1; white-space: pre;" ><tspan x="-20.3699996948" y="6.2828" >SALE</tspan></text>
</g>
<g transform="matrix(0.86 0 0 0.77 366.3571958542 267.646)"  >
<g style=""   >
		<g transform="matrix(1 0 0 1 -3.5 -54.8174234614)"  >
<path style="stroke: none; stroke-width: 1; stroke-dasharray: none; stroke-linecap: butt; stroke-dashoffset: 0; stroke-linejoin: miter; stroke-miterlimit: 4; fill: rgb(194,174,131); fill-rule: nonzero; opacity: 1;"  transform=" translate(-112.7, -13.6825765386)" d="M 150.3 13.4 h -32.6 c 0 -0.1 0 -0.1 0 -0.2 c 0 -0.5 -0.2 -0.9 -0.4 -1.4 c -0.2 -0.4 -0.5 -0.8 -0.8 -1.1 c -0.7 -0.6 -1.6 -1.1 -2.5 -1.2 c -0.9 -0.1 -1.8 0 -2.6 0.5 c -0.8 0.4 -1.4 1 -1.8 1.6 c -0.4 0.6 -0.7 1.2 -0.8 1.8 h -34 v 0.7 h 33.9 c -0.1 1.1 0.1 2.1 0.4 2.7 c 0.2 0.4 0.3 0.6 0.4 0.8 c 0.1 0.2 0.2 0.3 0.2 0.3 c 0 0 0.1 0 0.1 0 c 0 0 0.1 -0.1 0 -0.1 c 0 0 0 -0.1 -0.1 -0.3 c -0.1 -0.2 -0.2 -0.4 -0.3 -0.8 c -0.1 -0.3 -0.2 -0.8 -0.2 -1.3 c 0 -0.5 0 -1 0.2 -1.6 c 0.3 -1.1 1.2 -2.3 2.5 -3 c 0.6 -0.3 1.4 -0.4 2.1 -0.3 c 0.7 0.1 1.4 0.4 2 1 c 0.3 0.3 0.5 0.5 0.7 0.9 c 0.2 0.3 0.3 0.7 0.3 1 c 0.1 0.7 -0.1 1.4 -0.5 2 c -0.2 0.3 -0.5 0.5 -0.7 0.7 c -0.1 0 -0.2 0.1 -0.2 0.1 c -0.1 0 -0.1 0.1 -0.2 0.1 c -0.1 0.1 -0.3 0.1 -0.4 0.1 c -0.6 0.1 -1.2 0 -1.7 -0.4 c -0.5 -0.3 -0.8 -0.8 -0.9 -1.2 c -0.1 -0.4 -0.1 -0.9 0.1 -1.2 c 0.1 -0.3 0.3 -0.5 0.4 -0.7 c 0.1 -0.1 0.2 -0.2 0.2 -0.2 c 0 0 0 -0.1 0 -0.1 c 0 0 -0.1 -0.1 -0.1 0 l 0 0 c 0 0 -0.1 0.1 -0.3 0.2 c -0.2 0.1 -0.4 0.3 -0.6 0.7 c -0.2 0.3 -0.3 0.8 -0.2 1.4 c 0.1 0.6 0.4 1.2 1 1.6 c 0.6 0.4 1.3 0.7 2.2 0.6 c 0.2 0 0.4 -0.1 0.6 -0.1 c 0.1 0 0.2 -0.1 0.3 -0.1 c 0.1 0 0.2 -0.1 0.3 -0.1 c 0.4 -0.2 0.7 -0.5 1 -0.9 c 0.4 -0.5 0.6 -1.1 0.7 -1.8 h 32.6 V 13.4 z" stroke-linecap="round" />
</g>
</g>
</g>
<g transform="matrix(0.62 0 0 0.62 366.7483959961 246.297)" style=""  >
		<text xml:space="preserve" font-family="Raleway" font-size="20" font-style="normal" font-weight="normal" style="stroke: none; stroke-width: 1; stroke-dasharray: none; stroke-linecap: butt; stroke-dashoffset: 0; stroke-linejoin: miter; stroke-miterlimit: 4; fill: rgb(194,174,131); fill-rule: nonzero; opacity: 1; white-space: pre;" ><tspan x="-102.3600002289" y="6.2828" >YOU ARE SIMPLY THE</tspan></text>
</g>
<g transform="matrix(4.18 0 0 4.18 366.5 285.525)" style=""  >
		<text xml:space="preserve" font-family="Playfair Display" font-size="20" font-style="normal" font-weight="normal" style="stroke: none; stroke-width: 1; stroke-dasharray: none; stroke-linecap: butt; stroke-dashoffset: 0; stroke-linejoin: miter; stroke-miterlimit: 4; fill: rgb(194,174,131); fill-rule: nonzero; opacity: 1; white-space: pre;" ><tspan x="-23.8600009918" y="6.2828" >BEST</tspan></text>
</g>
</svg>