<?xml version="1.0" encoding="UTF-8" standalone="no" ?>
<!DOCTYPE svg PUBLIC "-//W3C//DTD SVG 1.1//EN" "http://www.w3.org/Graphics/SVG/1.1/DTD/svg11.dtd">
<svg xmlns="http://www.w3.org/2000/svg" xmlns:xlink="http://www.w3.org/1999/xlink" version="1.1" width="302.362204728" height="226.771653546" viewBox="0 0 733 549.75" xml:space="preserve">
<desc>Created with Fabric.js 3.2.0</desc>
<defs>
</defs>
<g transform="matrix(0.4 0 0 0.42 604.5 419.7181759891)"  >
<g style=""   >
</g>
</g>
<g transform="matrix(1.28 0 0 1.28 604.5056796875 384.0791759891)" style=""  >
		<text xml:space="preserve" font-family="Muli" font-size="20" font-style="normal" font-weight="bold" style="stroke: none; stroke-width: 1; stroke-dasharray: none; stroke-linecap: butt; stroke-dashoffset: 0; stroke-linejoin: miter; stroke-miterlimit: 10; fill: rgb(64,71,98); fill-rule: nonzero; opacity: 1; white-space: pre;" ><tspan x="-32.8559997559" y="6.2828" >FLASH</tspan></text>
</g>
<g transform="matrix(4.64 0 0 4.64 604.716798584 437.5971759891)" style=""  >
		<text xml:space="preserve" font-family="Francois One" font-size="20" font-style="normal" font-weight="normal" style="stroke: none; stroke-width: 1; stroke-dasharray: none; stroke-linecap: butt; stroke-dashoffset: 0; stroke-linejoin: miter; stroke-miterlimit: 10; fill: rgb(64,71,98); fill-rule: nonzero; opacity: 1; white-space: pre;" ><tspan x="-20.3699996948" y="6.2828" >SALE</tspan></text>
</g>
<g transform="matrix(0.54 0 0 0.57 384.5 47.1860504775)"  >
<g style=""   >
		<g transform="matrix(1 0 0 1 0.7 -7.35)"  >
<path style="stroke: none; stroke-width: 1; stroke-dasharray: none; stroke-linecap: butt; stroke-dashoffset: 0; stroke-linejoin: miter; stroke-miterlimit: 10; fill: rgb(64,71,98); fill-rule: nonzero; opacity: 1;"  transform=" translate(115.9, -1221.7)" d="M -104.9 1201.7 c -5 0 -9.3 3.2 -11 7.6 c -1.7 -4.4 -6 -7.6 -11 -7.6 c -6.5 0 -11.8 5.3 -11.8 11.8 c 0 12.7 22.8 28.2 22.8 28.2 s 22.7 -15.6 22.8 -28.2 C -93.1 1207 -98.4 1201.7 -104.9 1201.7 z" stroke-linecap="round" />
</g>
</g>
</g>
<g transform="matrix(1.32 0 0 1.32 322.916397583 43.5175504775)" style=""  >
		<text xml:space="preserve" font-family="Josefin Sans" font-size="20" font-style="normal" font-weight="normal" style="stroke: none; stroke-width: 1; stroke-dasharray: none; stroke-linecap: butt; stroke-dashoffset: 0; stroke-linejoin: miter; stroke-miterlimit: 10; fill: rgb(64,71,98); fill-rule: nonzero; opacity: 1; white-space: pre;" ><tspan x="-26.4699981689" y="6.2828" >ALEX</tspan></text>
</g>
<g transform="matrix(1.32 0 0 1.32 448.9536004028 43.5175504775)" style=""  >
		<text xml:space="preserve" font-family="Josefin Sans" font-size="20" font-style="normal" font-weight="normal" style="stroke: none; stroke-width: 1; stroke-dasharray: none; stroke-linecap: butt; stroke-dashoffset: 0; stroke-linejoin: miter; stroke-miterlimit: 10; fill: rgb(64,71,98); fill-rule: nonzero; opacity: 1; white-space: pre;" ><tspan x="-26.4300003052" y="6.2828" >SARA</tspan></text>
</g>
<g transform="matrix(0.29 0 0 0.22 387.5 174.0127899045)"  >
<g style=""   >
</g>
</g>
<g transform="matrix(0.64 0 0 0.64 390.0656008301 152.4077899045)" style=""  >
		<text xml:space="preserve" font-family="Libre Baskerville" font-size="20" font-style="italic" font-weight="normal" style="stroke: none; stroke-width: 1; stroke-dasharray: none; stroke-linecap: butt; stroke-dashoffset: 0; stroke-linejoin: miter; stroke-miterlimit: 10; fill: rgb(64,71,98); fill-rule: nonzero; opacity: 1; white-space: pre;" ><tspan x="-44.040001297" y="6.2828" >Est. 1989</tspan></text>
</g>
<g transform="matrix(1.37 0 0 1.37 385.9952965508 175.3517899045)" style=""  >
		<text xml:space="preserve" font-family="Libre Baskerville" font-size="20" font-style="normal" font-weight="normal" style="stroke: none; stroke-width: 1; stroke-dasharray: none; stroke-linecap: butt; stroke-dashoffset: 0; stroke-linejoin: miter; stroke-miterlimit: 10; fill: rgb(64,71,98); fill-rule: nonzero; opacity: 1; white-space: pre;" ><tspan x="-70.1899974823" y="6.2828" >Smith &amp; Sons</tspan></text>
</g>
<g transform="matrix(0.73 0 0 0.73 386.1517017822 197.4197899045)" style=""  >
		<text xml:space="preserve" font-family="Libre Baskerville" font-size="20" font-style="normal" font-weight="normal" style="stroke: none; stroke-width: 1; stroke-dasharray: none; stroke-linecap: butt; stroke-dashoffset: 0; stroke-linejoin: miter; stroke-miterlimit: 10; fill: rgb(64,71,98); fill-rule: nonzero; opacity: 1; white-space: pre;" ><tspan x="-51.7900024414" y="6.2828" >VINTAGE</tspan></text>
</g>
</svg>